<svg xmlns="http://www.w3.org/2000/svg" xmlns:xlink="http://www.w3.org/1999/xlink" width="851" zoomAndPan="magnify" viewBox="0 0 638.25 236.249991" height="315" preserveAspectRatio="xMidYMid meet" version="1.0"><defs><g/><clipPath id="b9ca286a21"><path d="M 93.089844 62.015625 L 119.257812 62.015625 L 119.257812 155.46875 L 93.089844 155.46875 Z M 93.089844 62.015625 " clip-rule="nonzero"/></clipPath></defs><g clip-path="url(#b9ca286a21)"><path fill="#e92927" d="M 119.238281 141.335938 L 110.171875 75.125 C 110.171875 75.125 114.21875 67.988281 115.132812 62.988281 C 115.132812 62.988281 114.625 62.160156 106.175781 62.160156 C 97.726562 62.160156 97.21875 62.988281 97.21875 62.988281 C 98.140625 67.988281 102.175781 75.125 102.175781 75.125 L 93.109375 141.335938 C 93.089844 141.4375 93.128906 141.550781 93.203125 141.625 L 105.917969 155.175781 C 106.054688 155.324219 106.285156 155.324219 106.425781 155.175781 L 119.148438 141.632812 C 119.222656 141.550781 119.257812 141.445312 119.238281 141.335938 Z M 119.238281 141.335938 " fill-opacity="1" fill-rule="nonzero"/></g><path fill="#bf2025" d="M 106.175781 76.425781 L 106.183594 76.425781 C 107.746094 76.410156 109.046875 76.269531 110.292969 76 L 110.171875 75.113281 C 109.128906 75.347656 107.882812 75.503906 106.175781 75.53125 C 104.46875 75.515625 103.21875 75.347656 102.175781 75.113281 L 102.058594 76 C 103.292969 76.269531 104.605469 76.398438 106.164062 76.425781 Z M 106.175781 76.425781 " fill-opacity="1" fill-rule="nonzero"/><g fill="#de3c3c" fill-opacity="1"><g transform="translate(318.099191, 142.344459)"><g><path d="M 12.140625 -80.375 C 13.222656 -80.445312 14.957031 -80.484375 17.34375 -80.484375 C 18.582031 -80.484375 19.972656 -80.484375 21.515625 -80.484375 C 25.054688 -80.484375 27.269531 -80.441406 28.15625 -80.359375 C 29.039062 -80.285156 29.832031 -79.976562 30.53125 -79.4375 C 31.457031 -78.90625 32.632812 -77.691406 34.0625 -75.796875 C 35.488281 -73.910156 37.507812 -71.039062 40.125 -67.1875 C 43.90625 -61.632812 46.066406 -58.359375 46.609375 -57.359375 C 54.546875 -43.484375 58.9375 -35.734375 59.78125 -34.109375 C 59.863281 -33.953125 59.941406 -33.875 60.015625 -33.875 C 60.097656 -33.875 60.175781 -34.066406 60.25 -34.453125 C 60.40625 -35.617188 60.484375 -43.019531 60.484375 -56.65625 L 60.59375 -77.9375 L 61.515625 -79.09375 C 61.984375 -79.707031 62.546875 -80.070312 63.203125 -80.1875 C 63.859375 -80.3125 65.6875 -80.445312 68.6875 -80.59375 C 70.070312 -80.675781 71.269531 -80.71875 72.28125 -80.71875 C 74.351562 -80.71875 75.738281 -80.601562 76.4375 -80.375 L 77.9375 -79.796875 L 78.171875 -70.546875 C 78.398438 -64.378906 78.515625 -55.164062 78.515625 -42.90625 C 78.515625 -39.820312 78.515625 -36.546875 78.515625 -33.078125 C 78.441406 -12.492188 78.25 -1.851562 77.9375 -1.15625 C 77.707031 -0.613281 77.363281 -0.304688 76.90625 -0.234375 C 76.28125 -0.148438 74.039062 -0.0351562 70.1875 0.109375 C 68.957031 0.191406 67.957031 0.234375 67.1875 0.234375 C 66.800781 0.234375 66.316406 0.210938 65.734375 0.171875 C 65.160156 0.128906 64.601562 -0.117188 64.0625 -0.578125 C 62.289062 -1.960938 58.164062 -7.78125 51.6875 -18.03125 C 45.21875 -28.289062 39.128906 -37.738281 33.421875 -46.375 C 29.023438 -53.15625 26.789062 -56.582031 26.71875 -56.65625 C 26.71875 -56.582031 26.71875 -56.546875 26.71875 -56.546875 C 26.71875 -56.472656 26.71875 -56.4375 26.71875 -56.4375 L 26.71875 -56.3125 C 26.71875 -56.238281 26.71875 -56.203125 26.71875 -56.203125 L 26.71875 -55.390625 C 26.71875 -55.390625 26.71875 -55.351562 26.71875 -55.28125 L 26.71875 -54.921875 C 26.71875 -54.847656 26.71875 -54.773438 26.71875 -54.703125 L 26.71875 -54.578125 C 26.71875 -54.503906 26.71875 -54.46875 26.71875 -54.46875 L 26.71875 -54.34375 C 26.71875 -54.195312 26.71875 -54.046875 26.71875 -53.890625 L 26.71875 -53.765625 C 26.71875 -53.691406 26.71875 -53.617188 26.71875 -53.546875 L 26.71875 -53.078125 C 26.71875 -53.003906 26.71875 -52.890625 26.71875 -52.734375 L 26.71875 -51 C 26.71875 -50.914062 26.71875 -50.835938 26.71875 -50.765625 L 26.71875 -50.1875 C 26.71875 -48.03125 26.753906 -45.695312 26.828125 -43.1875 C 26.898438 -40.6875 26.9375 -37.773438 26.9375 -34.453125 C 27.019531 -24.203125 27.0625 -16.457031 27.0625 -11.21875 C 27.0625 -5.894531 27.019531 -3.082031 26.9375 -2.78125 C 26.707031 -1.925781 26.09375 -1.269531 25.09375 -0.8125 C 24.394531 -0.34375 23.601562 -0.0703125 22.71875 0 C 21.832031 0.0703125 19.925781 0.109375 17 0.109375 C 13.84375 0.109375 11.894531 0.0703125 11.15625 0 C 10.425781 -0.0703125 9.789062 -0.34375 9.25 -0.8125 L 8.09375 -1.734375 L 8.09375 -44.296875 C 8.09375 -67.191406 8.207031 -78.753906 8.4375 -78.984375 C 8.519531 -79.210938 8.675781 -79.328125 8.90625 -79.328125 C 8.976562 -79.328125 9.09375 -79.289062 9.25 -79.21875 C 9.320312 -79.21875 9.398438 -79.21875 9.484375 -79.21875 C 9.710938 -79.21875 9.90625 -79.367188 10.0625 -79.671875 C 10.21875 -80.054688 10.910156 -80.289062 12.140625 -80.375 Z M 12.140625 -80.375 "/></g></g></g><g fill="#de3c3c" fill-opacity="1"><g transform="translate(395.114887, 142.344459)"><g><path d="M 26.484375 -58.625 C 29.253906 -59.25 31.910156 -59.5625 34.453125 -59.5625 C 36.617188 -59.5625 39.335938 -59.210938 42.609375 -58.515625 C 45.890625 -57.816406 48.957031 -56.160156 51.8125 -53.546875 C 54.425781 -51.148438 56.273438 -48.523438 57.359375 -45.671875 C 58.441406 -42.828125 59.054688 -38.9375 59.203125 -34 C 59.285156 -32.375 59.328125 -30.984375 59.328125 -29.828125 C 59.328125 -28.140625 59.25 -27.023438 59.09375 -26.484375 C 58.9375 -25.710938 58.757812 -25.25 58.5625 -25.09375 C 58.375 -24.9375 57.859375 -24.859375 57.015625 -24.859375 C 55.773438 -24.859375 52.222656 -24.566406 46.359375 -23.984375 C 40.503906 -23.410156 35.304688 -23.125 30.765625 -23.125 L 23.9375 -23.125 L 24.28125 -21.96875 C 24.820312 -19.8125 26.265625 -17.976562 28.609375 -16.46875 C 30.960938 -14.96875 33.609375 -14.21875 36.546875 -14.21875 C 40.085938 -14.21875 43.320312 -15.414062 46.25 -17.8125 C 47.5625 -18.882812 48.375 -19.421875 48.6875 -19.421875 C 48.914062 -19.421875 50.550781 -17.820312 53.59375 -14.625 C 56.644531 -11.425781 58.207031 -9.632812 58.28125 -9.25 C 58.28125 -9.25 58.28125 -9.210938 58.28125 -9.140625 C 58.28125 -8.753906 57.125 -7.710938 54.8125 -6.015625 C 52.5 -4.316406 50.457031 -3.046875 48.6875 -2.203125 C 46.375 -1.117188 44.15625 -0.304688 42.03125 0.234375 C 39.914062 0.773438 37.351562 1.046875 34.34375 1.046875 C 27.019531 1.046875 20.890625 -0.820312 15.953125 -4.5625 C 11.023438 -8.300781 7.554688 -13.601562 5.546875 -20.46875 C 4.929688 -22.707031 4.625 -25.710938 4.625 -29.484375 C 4.625 -32.953125 4.851562 -35.765625 5.3125 -37.921875 C 5.78125 -40.085938 6.707031 -42.519531 8.09375 -45.21875 C 9.945312 -48.84375 12.375 -51.75 15.375 -53.9375 C 18.382812 -56.132812 22.085938 -57.695312 26.484375 -58.625 Z M 38.96875 -45.328125 C 37.65625 -45.941406 36.347656 -46.25 35.046875 -46.25 C 34.035156 -46.25 32.585938 -45.941406 30.703125 -45.328125 C 28.816406 -44.710938 27.101562 -43.285156 25.5625 -41.046875 C 24.320312 -39.359375 23.703125 -38.203125 23.703125 -37.578125 C 23.703125 -37.503906 23.738281 -37.332031 23.8125 -37.0625 C 23.894531 -36.789062 25.09375 -36.65625 27.40625 -36.65625 C 29.5625 -36.65625 32.914062 -36.828125 37.46875 -37.171875 C 42.019531 -37.523438 44.332031 -37.738281 44.40625 -37.8125 C 44.476562 -37.894531 44.515625 -38.050781 44.515625 -38.28125 C 44.515625 -38.664062 44.222656 -39.453125 43.640625 -40.640625 C 43.066406 -41.835938 42.515625 -42.742188 41.984375 -43.359375 C 41.285156 -44.054688 40.28125 -44.710938 38.96875 -45.328125 Z M 38.96875 -45.328125 "/></g></g></g><g fill="#de3c3c" fill-opacity="1"><g transform="translate(448.77105, 142.344459)"><g><path d="M 35.390625 -59.328125 C 36.703125 -59.628906 38.585938 -59.78125 41.046875 -59.78125 C 41.515625 -59.78125 42.019531 -59.78125 42.5625 -59.78125 C 47.257812 -59.632812 51.1875 -58.632812 54.34375 -56.78125 C 57.507812 -54.925781 60.285156 -51.957031 62.671875 -47.875 C 64.210938 -45.332031 65.347656 -42.285156 66.078125 -38.734375 C 66.816406 -35.191406 67.1875 -32.109375 67.1875 -29.484375 C 67.1875 -28.710938 67.148438 -27.984375 67.078125 -27.296875 C 66.378906 -19.046875 63.367188 -12.257812 58.046875 -6.9375 C 55.273438 -4.164062 52.632812 -2.296875 50.125 -1.328125 C 47.625 -0.367188 44.867188 0.109375 41.859375 0.109375 C 41.171875 0.109375 40.476562 0.0703125 39.78125 0 C 38.164062 -0.0703125 36.953125 -0.1875 36.140625 -0.34375 C 35.328125 -0.5 34.1875 -0.960938 32.71875 -1.734375 C 30.5625 -2.816406 28.597656 -4.203125 26.828125 -5.890625 L 24.28125 -8.328125 L 24.28125 2.890625 C 24.28125 10.054688 24.164062 13.953125 23.9375 14.578125 C 23.78125 15.421875 23.046875 16.191406 21.734375 16.890625 C 20.890625 17.347656 20.21875 17.632812 19.71875 17.75 C 19.21875 17.863281 18.660156 17.921875 18.046875 17.921875 C 17.347656 17.921875 16.5 17.882812 15.5 17.8125 C 12.644531 17.65625 10.5625 17.304688 9.25 16.765625 L 7.171875 15.953125 L 7.171875 -58.625 L 24.171875 -58.40625 L 24.28125 -55.5 C 24.363281 -53.34375 24.441406 -52.265625 24.515625 -52.265625 C 24.671875 -52.265625 25.519531 -53.035156 27.0625 -54.578125 C 28.375 -55.890625 29.644531 -56.890625 30.875 -57.578125 C 32.101562 -58.273438 33.609375 -58.859375 35.390625 -59.328125 Z M 43.140625 -43.140625 C 42.441406 -43.597656 41.785156 -43.90625 41.171875 -44.0625 C 40.554688 -44.21875 39.671875 -44.332031 38.515625 -44.40625 C 36.585938 -44.40625 35.160156 -44.25 34.234375 -43.9375 C 33.078125 -43.476562 31.9375 -42.707031 30.8125 -41.625 C 29.695312 -40.550781 28.832031 -39.394531 28.21875 -38.15625 C 27.675781 -37 27.363281 -36.015625 27.28125 -35.203125 C 27.207031 -34.398438 27.171875 -32.765625 27.171875 -30.296875 C 27.171875 -27.828125 27.226562 -26.1875 27.34375 -25.375 C 27.457031 -24.570312 27.785156 -23.59375 28.328125 -22.4375 C 29.097656 -20.738281 29.867188 -19.390625 30.640625 -18.390625 C 31.410156 -17.390625 32.335938 -16.539062 33.421875 -15.84375 C 34.109375 -15.382812 34.644531 -15.113281 35.03125 -15.03125 C 35.425781 -14.957031 35.773438 -14.921875 36.078125 -14.921875 C 36.546875 -14.921875 37.125 -14.957031 37.8125 -15.03125 C 39.4375 -15.113281 40.765625 -15.460938 41.796875 -16.078125 C 42.835938 -16.691406 43.863281 -17.734375 44.875 -19.203125 C 46.488281 -21.515625 47.429688 -23.726562 47.703125 -25.84375 C 47.972656 -27.96875 48.109375 -29.53125 48.109375 -30.53125 C 48.109375 -32.6875 47.722656 -35 46.953125 -37.46875 C 46.179688 -39.9375 44.910156 -41.828125 43.140625 -43.140625 Z M 43.140625 -43.140625 "/></g></g></g><g fill="#de3c3c" fill-opacity="1"><g transform="translate(509.712627, 142.344459)"><g><path d="M 25.328125 -58.515625 C 27.410156 -58.972656 29.375 -59.222656 31.21875 -59.265625 C 33.070312 -59.304688 34.148438 -59.328125 34.453125 -59.328125 C 37.546875 -59.328125 39.898438 -59.09375 41.515625 -58.625 C 45.753906 -57.550781 49.164062 -55.703125 51.75 -53.078125 C 54.332031 -50.453125 55.929688 -47.210938 56.546875 -43.359375 C 56.859375 -41.359375 57.050781 -33.882812 57.125 -20.9375 L 57.234375 -1.265625 L 55.96875 -0.8125 C 55.269531 -0.582031 54.035156 -0.445312 52.265625 -0.40625 C 50.492188 -0.363281 49.335938 -0.34375 48.796875 -0.34375 C 47.023438 -0.34375 45.71875 -0.421875 44.875 -0.578125 C 44.332031 -0.648438 43.941406 -0.859375 43.703125 -1.203125 C 43.472656 -1.554688 43.128906 -2.234375 42.671875 -3.234375 C 42.128906 -4.703125 41.859375 -5.707031 41.859375 -6.25 C 41.859375 -6.707031 41.78125 -6.9375 41.625 -6.9375 C 41.394531 -6.9375 40.742188 -6.4375 39.671875 -5.4375 C 38.429688 -4.28125 36.941406 -3.195312 35.203125 -2.1875 C 33.472656 -1.1875 31.835938 -0.457031 30.296875 0 C 28.523438 0.539062 26.132812 0.8125 23.125 0.8125 C 22.894531 0.8125 21.910156 0.789062 20.171875 0.75 C 18.441406 0.707031 16.84375 0.421875 15.375 -0.109375 C 7.820312 -3.117188 4.046875 -8.863281 4.046875 -17.34375 C 4.046875 -17.425781 4.046875 -17.503906 4.046875 -17.578125 C 4.046875 -20.585938 4.445312 -22.992188 5.25 -24.796875 C 6.0625 -26.609375 7.507812 -28.554688 9.59375 -30.640625 C 10.832031 -31.796875 11.875 -32.660156 12.71875 -33.234375 C 13.570312 -33.816406 14.726562 -34.378906 16.1875 -34.921875 C 20.507812 -36.691406 26.484375 -37.578125 34.109375 -37.578125 C 36.890625 -37.578125 38.566406 -37.613281 39.140625 -37.6875 C 39.722656 -37.769531 40.015625 -37.96875 40.015625 -38.28125 C 40.015625 -39.507812 39.492188 -40.78125 38.453125 -42.09375 C 37.410156 -43.40625 36.15625 -44.332031 34.6875 -44.875 C 33.457031 -45.332031 31.957031 -45.5625 30.1875 -45.5625 C 29.71875 -45.5625 28.769531 -45.519531 27.34375 -45.4375 C 25.914062 -45.363281 24.085938 -44.941406 21.859375 -44.171875 C 19.160156 -43.328125 17.65625 -42.863281 17.34375 -42.78125 C 17.113281 -42.78125 16.882812 -43.085938 16.65625 -43.703125 C 16.425781 -44.328125 16.117188 -45.367188 15.734375 -46.828125 C 15.035156 -49.835938 14.6875 -51.765625 14.6875 -52.609375 C 14.6875 -52.921875 14.6875 -53.15625 14.6875 -53.3125 C 14.6875 -53.769531 14.742188 -54.09375 14.859375 -54.28125 C 14.972656 -54.476562 15.414062 -54.847656 16.1875 -55.390625 C 18.195312 -56.390625 21.242188 -57.429688 25.328125 -58.515625 Z M 40.015625 -18.734375 L 40.015625 -24.984375 L 35.625 -24.859375 C 32.914062 -24.859375 30.867188 -24.742188 29.484375 -24.515625 C 28.097656 -24.285156 26.789062 -23.863281 25.5625 -23.25 C 23.78125 -22.238281 22.734375 -21.175781 22.421875 -20.0625 C 22.117188 -18.945312 21.96875 -18.15625 21.96875 -17.6875 C 21.96875 -16.53125 22.429688 -15.566406 23.359375 -14.796875 C 24.585938 -13.566406 26.242188 -12.953125 28.328125 -12.953125 C 28.867188 -12.953125 30.023438 -13.085938 31.796875 -13.359375 C 33.566406 -13.628906 35.570312 -14.804688 37.8125 -16.890625 Z M 40.015625 -18.734375 "/></g></g></g><g fill="#de3c3c" fill-opacity="1"><g transform="translate(562.212371, 142.344459)"><g><path d="M 9.828125 -84.421875 C 10.367188 -84.492188 12.835938 -84.53125 17.234375 -84.53125 L 23.59375 -84.421875 L 23.59375 1.046875 L 16.765625 1.046875 C 12.140625 1.046875 9.519531 0.851562 8.90625 0.46875 L 7.984375 -0.109375 L 7.984375 -40.828125 C 7.984375 -67.265625 8.054688 -80.832031 8.203125 -81.53125 C 8.441406 -82.21875 8.753906 -82.5625 9.140625 -82.5625 C 9.441406 -82.5625 9.59375 -82.601562 9.59375 -82.6875 C 9.59375 -82.757812 9.515625 -82.875 9.359375 -83.03125 C 9.054688 -83.34375 8.90625 -83.613281 8.90625 -83.84375 C 8.90625 -83.84375 8.921875 -83.898438 8.953125 -84.015625 C 8.992188 -84.128906 9.285156 -84.265625 9.828125 -84.421875 Z M 9.828125 -84.421875 "/></g></g></g><g fill="#de3c3c" fill-opacity="1"><g transform="translate(584.29849, 142.344459)"><g><path d="M 13.1875 -15.609375 C 14.1875 -15.835938 15.765625 -15.992188 17.921875 -16.078125 C 19.304688 -16.078125 20.328125 -16 20.984375 -15.84375 C 21.640625 -15.6875 22.46875 -15.378906 23.46875 -14.921875 C 24.394531 -14.453125 25.070312 -14.003906 25.5 -13.578125 C 25.925781 -13.160156 26.332031 -12.566406 26.71875 -11.796875 C 27.5625 -10.023438 27.984375 -8.132812 27.984375 -6.125 C 27.984375 -5.28125 27.90625 -4.394531 27.75 -3.46875 C 27.519531 -1.925781 27.078125 -0.710938 26.421875 0.171875 C 25.765625 1.054688 24.820312 1.804688 23.59375 2.421875 C 22.738281 2.890625 22.039062 3.160156 21.5 3.234375 C 20.96875 3.316406 20.394531 3.359375 19.78125 3.359375 C 19.15625 3.359375 18.421875 3.316406 17.578125 3.234375 C 13.648438 3.160156 11.007812 2.410156 9.65625 0.984375 C 8.300781 -0.441406 7.625 -2.773438 7.625 -6.015625 C 7.625 -6.316406 7.625 -6.660156 7.625 -7.046875 C 7.863281 -11.984375 9.71875 -14.835938 13.1875 -15.609375 Z M 13.1875 -15.609375 "/></g></g></g><g fill="#000000" fill-opacity="1"><g transform="translate(124.445965, 142.344459)"><g><path d="M 11.453125 -80.828125 C 13.296875 -80.910156 19.226562 -80.953125 29.25 -80.953125 C 35.34375 -80.867188 39.640625 -80.769531 42.140625 -80.65625 C 44.648438 -80.539062 46.675781 -80.269531 48.21875 -79.84375 C 49.757812 -79.425781 51.492188 -78.710938 53.421875 -77.703125 C 55.273438 -76.785156 57.085938 -75.457031 58.859375 -73.71875 C 60.628906 -71.988281 61.863281 -70.3125 62.5625 -68.6875 C 63.257812 -67.226562 63.835938 -65.359375 64.296875 -63.078125 C 64.753906 -60.804688 64.984375 -58.820312 64.984375 -57.125 C 64.984375 -55.507812 64.691406 -53.445312 64.109375 -50.9375 C 63.535156 -48.4375 62.863281 -46.453125 62.09375 -44.984375 C 61.25 -43.367188 60 -41.671875 58.34375 -39.890625 C 56.6875 -38.117188 55.046875 -36.734375 53.421875 -35.734375 C 52.804688 -35.347656 52.25 -34.941406 51.75 -34.515625 C 51.25 -34.085938 51 -33.800781 51 -33.65625 C 51 -33.414062 52.617188 -30.367188 55.859375 -24.515625 C 59.097656 -18.660156 61.601562 -14.265625 63.375 -11.328125 C 65.457031 -8.242188 67.078125 -5.851562 68.234375 -4.15625 C 69.921875 -1.769531 70.765625 -0.460938 70.765625 -0.234375 C 70.765625 -0.234375 70.742188 -0.191406 70.703125 -0.109375 C 70.671875 -0.0351562 67.300781 0 60.59375 0 L 50.65625 0 L 49.140625 -2.078125 C 47.296875 -4.703125 44.019531 -10.003906 39.3125 -17.984375 C 34.613281 -25.960938 32.265625 -30.296875 32.265625 -30.984375 C 32.265625 -31.222656 31.765625 -31.34375 30.765625 -31.34375 L 26.828125 -31.34375 L 27.0625 0 L 8.09375 -0.234375 L 8.09375 -36.78125 C 8.09375 -60.90625 8.207031 -74.316406 8.4375 -77.015625 L 8.671875 -80.71875 Z M 26.71875 -45.796875 C 30.101562 -45.953125 32.757812 -46.066406 34.6875 -46.140625 C 38.15625 -46.296875 40.929688 -47.257812 43.015625 -49.03125 C 45.097656 -50.800781 46.140625 -53.035156 46.140625 -55.734375 C 46.140625 -55.816406 46.140625 -55.929688 46.140625 -56.078125 C 46.140625 -58.785156 45.253906 -60.945312 43.484375 -62.5625 C 42.398438 -63.644531 41.03125 -64.394531 39.375 -64.8125 C 37.71875 -65.238281 35.234375 -65.609375 31.921875 -65.921875 L 26.484375 -66.140625 Z M 26.71875 -45.796875 "/></g></g></g><g fill="#000000" fill-opacity="1"><g transform="translate(188.162928, 142.344459)"><g><path d="M 26.484375 -58.625 C 29.253906 -59.25 31.910156 -59.5625 34.453125 -59.5625 C 36.617188 -59.5625 39.335938 -59.210938 42.609375 -58.515625 C 45.890625 -57.816406 48.957031 -56.160156 51.8125 -53.546875 C 54.425781 -51.148438 56.273438 -48.523438 57.359375 -45.671875 C 58.441406 -42.828125 59.054688 -38.9375 59.203125 -34 C 59.285156 -32.375 59.328125 -30.984375 59.328125 -29.828125 C 59.328125 -28.140625 59.25 -27.023438 59.09375 -26.484375 C 58.9375 -25.710938 58.757812 -25.25 58.5625 -25.09375 C 58.375 -24.9375 57.859375 -24.859375 57.015625 -24.859375 C 55.773438 -24.859375 52.222656 -24.566406 46.359375 -23.984375 C 40.503906 -23.410156 35.304688 -23.125 30.765625 -23.125 L 23.9375 -23.125 L 24.28125 -21.96875 C 24.820312 -19.8125 26.265625 -17.976562 28.609375 -16.46875 C 30.960938 -14.96875 33.609375 -14.21875 36.546875 -14.21875 C 40.085938 -14.21875 43.320312 -15.414062 46.25 -17.8125 C 47.5625 -18.882812 48.375 -19.421875 48.6875 -19.421875 C 48.914062 -19.421875 50.550781 -17.820312 53.59375 -14.625 C 56.644531 -11.425781 58.207031 -9.632812 58.28125 -9.25 C 58.28125 -9.25 58.28125 -9.210938 58.28125 -9.140625 C 58.28125 -8.753906 57.125 -7.710938 54.8125 -6.015625 C 52.5 -4.316406 50.457031 -3.046875 48.6875 -2.203125 C 46.375 -1.117188 44.15625 -0.304688 42.03125 0.234375 C 39.914062 0.773438 37.351562 1.046875 34.34375 1.046875 C 27.019531 1.046875 20.890625 -0.820312 15.953125 -4.5625 C 11.023438 -8.300781 7.554688 -13.601562 5.546875 -20.46875 C 4.929688 -22.707031 4.625 -25.710938 4.625 -29.484375 C 4.625 -32.953125 4.851562 -35.765625 5.3125 -37.921875 C 5.78125 -40.085938 6.707031 -42.519531 8.09375 -45.21875 C 9.945312 -48.84375 12.375 -51.75 15.375 -53.9375 C 18.382812 -56.132812 22.085938 -57.695312 26.484375 -58.625 Z M 38.96875 -45.328125 C 37.65625 -45.941406 36.347656 -46.25 35.046875 -46.25 C 34.035156 -46.25 32.585938 -45.941406 30.703125 -45.328125 C 28.816406 -44.710938 27.101562 -43.285156 25.5625 -41.046875 C 24.320312 -39.359375 23.703125 -38.203125 23.703125 -37.578125 C 23.703125 -37.503906 23.738281 -37.332031 23.8125 -37.0625 C 23.894531 -36.789062 25.09375 -36.65625 27.40625 -36.65625 C 29.5625 -36.65625 32.914062 -36.828125 37.46875 -37.171875 C 42.019531 -37.523438 44.332031 -37.738281 44.40625 -37.8125 C 44.476562 -37.894531 44.515625 -38.050781 44.515625 -38.28125 C 44.515625 -38.664062 44.222656 -39.453125 43.640625 -40.640625 C 43.066406 -41.835938 42.515625 -42.742188 41.984375 -43.359375 C 41.285156 -44.054688 40.28125 -44.710938 38.96875 -45.328125 Z M 38.96875 -45.328125 "/></g></g></g><g fill="#000000" fill-opacity="1"><g transform="translate(241.819091, 142.344459)"><g><path d="M 47.984375 -84.875 C 48.367188 -85.34375 48.925781 -85.613281 49.65625 -85.6875 C 50.394531 -85.769531 52.304688 -85.8125 55.390625 -85.8125 C 58.316406 -85.8125 60.109375 -85.769531 60.765625 -85.6875 C 61.421875 -85.613281 61.789062 -85.421875 61.875 -85.109375 C 61.875 -84.804688 61.910156 -84.65625 61.984375 -84.65625 C 61.984375 -84.65625 62.019531 -84.726562 62.09375 -84.875 C 62.09375 -84.957031 62.132812 -85.078125 62.21875 -85.234375 C 62.289062 -85.378906 62.367188 -85.453125 62.453125 -85.453125 C 62.523438 -85.453125 62.640625 -85.257812 62.796875 -84.875 C 62.867188 -84.570312 62.945312 -84.1875 63.03125 -83.71875 C 63.332031 -81.945312 63.523438 -66.375 63.609375 -37 C 63.679688 -27.976562 63.71875 -20.847656 63.71875 -15.609375 C 63.71875 -10.285156 63.675781 -6.46875 63.59375 -4.15625 C 63.519531 -1.84375 63.289062 -0.613281 62.90625 -0.46875 C 62.21875 -0.3125 60.40625 -0.234375 57.46875 -0.234375 C 56.695312 -0.234375 55 -0.25 52.375 -0.28125 C 49.757812 -0.320312 48.222656 -0.457031 47.765625 -0.6875 C 47.453125 -0.84375 47.238281 -1.148438 47.125 -1.609375 C 47.007812 -2.078125 46.953125 -3.046875 46.953125 -4.515625 L 46.953125 -7.984375 L 44.875 -5.890625 C 40.164062 -1.191406 35.078125 1.15625 29.609375 1.15625 C 27.984375 1.15625 26.285156 0.925781 24.515625 0.46875 C 22.128906 -0.0703125 20.046875 -0.820312 18.265625 -1.78125 C 16.492188 -2.75 14.644531 -4.160156 12.71875 -6.015625 C 9.863281 -8.941406 7.800781 -12.21875 6.53125 -15.84375 C 5.257812 -19.46875 4.625 -23.742188 4.625 -28.671875 C 4.625 -33.066406 5.007812 -36.554688 5.78125 -39.140625 C 6.550781 -41.722656 7.976562 -44.632812 10.0625 -47.875 C 11.375 -49.875 12.722656 -51.507812 14.109375 -52.78125 C 15.492188 -54.0625 17.191406 -55.203125 19.203125 -56.203125 C 22.515625 -57.898438 25.441406 -58.84375 27.984375 -59.03125 C 30.523438 -59.226562 32.222656 -59.328125 33.078125 -59.328125 C 36.160156 -59.328125 38.859375 -58.828125 41.171875 -57.828125 C 42.328125 -57.359375 43.632812 -56.582031 45.09375 -55.5 L 46.953125 -54 L 47.0625 -61.0625 C 47.144531 -68.15625 47.1875 -73.359375 47.1875 -76.671875 C 47.1875 -78.285156 47.1875 -79.441406 47.1875 -80.140625 C 47.1875 -81.753906 47.242188 -82.847656 47.359375 -83.421875 C 47.472656 -84.003906 47.679688 -84.488281 47.984375 -84.875 Z M 38.859375 -42.90625 C 37.316406 -43.675781 35.945312 -44.0625 34.75 -44.0625 C 33.550781 -44.0625 32.144531 -43.632812 30.53125 -42.78125 C 29.53125 -42.320312 28.453125 -41.472656 27.296875 -40.234375 C 26.140625 -39.003906 25.210938 -37.773438 24.515625 -36.546875 C 24.054688 -35.773438 23.785156 -35.019531 23.703125 -34.28125 C 23.628906 -33.550781 23.59375 -32.1875 23.59375 -30.1875 C 23.59375 -27.71875 23.800781 -25.632812 24.21875 -23.9375 C 24.644531 -22.238281 25.398438 -20.539062 26.484375 -18.84375 C 27.484375 -17.15625 28.597656 -15.941406 29.828125 -15.203125 C 31.066406 -14.472656 32.648438 -14.109375 34.578125 -14.109375 C 36.960938 -14.109375 39.019531 -14.742188 40.75 -16.015625 C 42.488281 -17.285156 43.976562 -19.269531 45.21875 -21.96875 C 45.988281 -23.820312 46.410156 -25.382812 46.484375 -26.65625 C 46.566406 -27.925781 46.609375 -28.753906 46.609375 -29.140625 C 46.609375 -30.835938 46.351562 -32.550781 45.84375 -34.28125 C 45.34375 -36.019531 44.476562 -37.675781 43.25 -39.25 C 42.019531 -40.832031 40.554688 -42.050781 38.859375 -42.90625 Z M 38.859375 -42.90625 "/></g></g></g><g fill="#000000" fill-opacity="1"><g transform="translate(6.856003, 142.34715)"><g><path d="M 26.140625 0 L 8.09375 0 L 8.09375 -81.1875 L 26.140625 -81.1875 Z M 30.0625 -51.6875 C 46.488281 -51.6875 55.160156 -51.800781 56.078125 -52.03125 L 57.46875 -52.265625 L 57.46875 -66.03125 C 57.46875 -74.4375 57.546875 -79.023438 57.703125 -79.796875 C 57.785156 -80.253906 58.191406 -80.519531 58.921875 -80.59375 C 59.648438 -80.675781 61.941406 -80.753906 65.796875 -80.828125 C 70.960938 -80.910156 73.738281 -80.988281 74.125 -81.0625 C 74.195312 -81.0625 74.273438 -81.0625 74.359375 -81.0625 C 74.585938 -81.0625 74.859375 -80.984375 75.171875 -80.828125 C 75.472656 -80.753906 75.660156 -79.960938 75.734375 -78.453125 C 75.816406 -76.953125 75.859375 -72.695312 75.859375 -65.6875 C 75.785156 -56.4375 75.707031 -44.675781 75.625 -30.40625 L 75.390625 0 L 57.234375 -0.234375 L 57.359375 -23.46875 L 57.59375 -35.84375 L 30.0625 -35.84375 Z M 30.0625 -51.6875 "/></g></g></g><g fill="#000000" fill-opacity="1"><g transform="translate(243.844143, 193.118899)"><g><path d="M 12.296875 -8.265625 L 12.296875 0 L 8.0625 0 L 8.0625 -8.265625 L 0.5 -21.375 L 5.328125 -21.375 L 10.3125 -12.046875 L 15.15625 -21.375 L 19.859375 -21.375 Z M 12.296875 -8.265625 "/></g></g></g><g fill="#000000" fill-opacity="1"><g transform="translate(262.09114, 193.118899)"><g><path d="M 3.09375 -14.515625 C 4.601562 -16.117188 6.703125 -16.921875 9.390625 -16.921875 C 12.078125 -16.921875 14.171875 -16.117188 15.671875 -14.515625 C 17.179688 -12.910156 17.9375 -10.816406 17.9375 -8.234375 C 17.9375 -5.679688 17.179688 -3.597656 15.671875 -1.984375 C 14.171875 -0.367188 12.078125 0.4375 9.390625 0.4375 C 6.703125 0.4375 4.601562 -0.367188 3.09375 -1.984375 C 1.59375 -3.597656 0.84375 -5.679688 0.84375 -8.234375 C 0.84375 -10.816406 1.59375 -12.910156 3.09375 -14.515625 Z M 6.359375 -4.078125 C 7.097656 -3.078125 8.109375 -2.578125 9.390625 -2.578125 C 10.671875 -2.578125 11.675781 -3.078125 12.40625 -4.078125 C 13.144531 -5.078125 13.515625 -6.460938 13.515625 -8.234375 C 13.515625 -10.015625 13.144531 -11.40625 12.40625 -12.40625 C 11.675781 -13.40625 10.671875 -13.90625 9.390625 -13.90625 C 8.109375 -13.90625 7.097656 -13.40625 6.359375 -12.40625 C 5.628906 -11.40625 5.265625 -10.015625 5.265625 -8.234375 C 5.265625 -6.460938 5.628906 -5.078125 6.359375 -4.078125 Z M 6.359375 -4.078125 "/></g></g></g><g fill="#000000" fill-opacity="1"><g transform="translate(279.718554, 193.118899)"><g><path d="M 17.171875 -16.484375 L 17.171875 0 L 12.890625 0 L 12.890625 -2.78125 L 11.625 -0.6875 C 10.507812 0.0625 9.1875 0.4375 7.65625 0.4375 C 6.019531 0.4375 4.691406 0.0390625 3.671875 -0.75 C 2.648438 -1.550781 2.035156 -2.550781 1.828125 -3.75 C 1.722656 -4.445312 1.671875 -5.445312 1.671875 -6.75 L 1.671875 -16.484375 L 5.953125 -16.484375 L 5.953125 -7.65625 C 5.953125 -6.882812 5.992188 -6.128906 6.078125 -5.390625 C 6.296875 -3.535156 7.359375 -2.609375 9.265625 -2.609375 C 10.378906 -2.609375 11.257812 -3.070312 11.90625 -4 C 12.5625 -4.925781 12.890625 -6.289062 12.890625 -8.09375 L 12.890625 -16.484375 Z M 17.171875 -16.484375 "/></g></g></g><g fill="#000000" fill-opacity="1"><g transform="translate(297.717706, 193.118899)"><g><path d="M 10.34375 -16.890625 C 10.820312 -16.890625 11.226562 -16.847656 11.5625 -16.765625 L 11.5625 -13.328125 C 9.738281 -13.453125 8.394531 -13.0625 7.53125 -12.15625 C 6.664062 -11.257812 6.234375 -9.726562 6.234375 -7.5625 L 6.234375 0 L 1.953125 0 L 1.953125 -16.484375 L 6.234375 -16.484375 L 6.234375 -13.484375 L 7.53125 -15.765625 C 8.332031 -16.515625 9.269531 -16.890625 10.34375 -16.890625 Z M 10.34375 -16.890625 "/></g></g></g><g fill="#000000" fill-opacity="1"><g transform="translate(308.343715, 193.118899)"><g/></g></g><g fill="#000000" fill-opacity="1"><g transform="translate(313.207502, 193.118899)"><g><path d="M 19.484375 -18.03125 L 12.234375 -18.03125 L 12.234375 0 L 7.96875 0 L 7.96875 -18.03125 L 0.71875 -18.03125 L 0.71875 -21.375 L 19.484375 -21.375 Z M 19.484375 -18.03125 "/></g></g></g><g fill="#000000" fill-opacity="1"><g transform="translate(331.361561, 193.118899)"><g><path d="M 10.34375 -16.890625 C 10.820312 -16.890625 11.226562 -16.847656 11.5625 -16.765625 L 11.5625 -13.328125 C 9.738281 -13.453125 8.394531 -13.0625 7.53125 -12.15625 C 6.664062 -11.257812 6.234375 -9.726562 6.234375 -7.5625 L 6.234375 0 L 1.953125 0 L 1.953125 -16.484375 L 6.234375 -16.484375 L 6.234375 -13.484375 L 7.53125 -15.765625 C 8.332031 -16.515625 9.269531 -16.890625 10.34375 -16.890625 Z M 10.34375 -16.890625 "/></g></g></g><g fill="#000000" fill-opacity="1"><g transform="translate(341.987571, 193.118899)"><g><path d="M 17.171875 -16.484375 L 17.171875 0 L 12.890625 0 L 12.890625 -2.78125 L 11.625 -0.6875 C 10.507812 0.0625 9.1875 0.4375 7.65625 0.4375 C 6.019531 0.4375 4.691406 0.0390625 3.671875 -0.75 C 2.648438 -1.550781 2.035156 -2.550781 1.828125 -3.75 C 1.722656 -4.445312 1.671875 -5.445312 1.671875 -6.75 L 1.671875 -16.484375 L 5.953125 -16.484375 L 5.953125 -7.65625 C 5.953125 -6.882812 5.992188 -6.128906 6.078125 -5.390625 C 6.296875 -3.535156 7.359375 -2.609375 9.265625 -2.609375 C 10.378906 -2.609375 11.257812 -3.070312 11.90625 -4 C 12.5625 -4.925781 12.890625 -6.289062 12.890625 -8.09375 L 12.890625 -16.484375 Z M 17.171875 -16.484375 "/></g></g></g><g fill="#000000" fill-opacity="1"><g transform="translate(359.986728, 193.118899)"><g><path d="M 7.84375 -16.921875 C 9.738281 -16.921875 11.253906 -16.441406 12.390625 -15.484375 C 13.523438 -14.535156 14.1875 -13.28125 14.375 -11.71875 L 10.09375 -11.71875 C 9.8125 -13.300781 8.96875 -14.09375 7.5625 -14.09375 C 6.9375 -14.09375 6.453125 -13.929688 6.109375 -13.609375 C 5.773438 -13.296875 5.609375 -12.867188 5.609375 -12.328125 C 5.609375 -11.710938 5.882812 -11.21875 6.4375 -10.84375 C 7 -10.46875 7.972656 -10.109375 9.359375 -9.765625 C 11.148438 -9.304688 12.488281 -8.671875 13.375 -7.859375 C 14.269531 -7.054688 14.71875 -5.9375 14.71875 -4.5 C 14.71875 -2.90625 14.082031 -1.679688 12.8125 -0.828125 C 11.539062 0.015625 9.914062 0.4375 7.9375 0.4375 C 5.863281 0.4375 4.1875 -0.015625 2.90625 -0.921875 C 1.625 -1.835938 0.875 -3.203125 0.65625 -5.015625 L 4.921875 -5.015625 C 5.085938 -4.148438 5.441406 -3.492188 5.984375 -3.046875 C 6.535156 -2.609375 7.207031 -2.390625 8 -2.390625 C 8.71875 -2.390625 9.296875 -2.539062 9.734375 -2.84375 C 10.179688 -3.15625 10.40625 -3.601562 10.40625 -4.1875 C 10.40625 -4.820312 10.101562 -5.34375 9.5 -5.75 C 8.90625 -6.15625 7.894531 -6.53125 6.46875 -6.875 C 4.800781 -7.289062 3.519531 -7.882812 2.625 -8.65625 C 1.738281 -9.4375 1.296875 -10.5 1.296875 -11.84375 C 1.296875 -13.40625 1.890625 -14.640625 3.078125 -15.546875 C 4.265625 -16.460938 5.851562 -16.921875 7.84375 -16.921875 Z M 7.84375 -16.921875 "/></g></g></g><g fill="#000000" fill-opacity="1"><g transform="translate(374.237351, 193.118899)"><g><path d="M 7.0625 -13.546875 L 7.0625 -5.921875 C 7.0625 -5.234375 7.070312 -4.75 7.09375 -4.46875 C 7.15625 -3.65625 7.390625 -3.128906 7.796875 -2.890625 C 8.210938 -2.660156 9.007812 -2.585938 10.1875 -2.671875 L 10.1875 0.125 C 9.300781 0.269531 8.363281 0.34375 7.375 0.34375 C 5.800781 0.34375 4.675781 0.0820312 4 -0.4375 C 3.332031 -0.96875 2.945312 -1.832031 2.84375 -3.03125 C 2.800781 -3.53125 2.78125 -4.328125 2.78125 -5.421875 L 2.78125 -13.546875 L 0.375 -13.546875 L 0.375 -16.359375 L 2.78125 -16.359375 L 2.78125 -20.421875 L 7.0625 -20.421875 L 7.0625 -16.359375 L 10.46875 -16.359375 L 10.46875 -13.546875 Z M 7.0625 -13.546875 "/></g></g></g><g fill="#000000" fill-opacity="1"><g transform="translate(384.27474, 193.118899)"><g><path d="M 16.921875 -8.578125 C 16.921875 -7.984375 16.898438 -7.5 16.859375 -7.125 L 5.140625 -7.125 C 5.390625 -4.09375 6.660156 -2.578125 8.953125 -2.578125 C 9.878906 -2.578125 10.644531 -2.820312 11.25 -3.3125 C 11.863281 -3.8125 12.242188 -4.492188 12.390625 -5.359375 L 16.671875 -5.359375 C 16.253906 -3.484375 15.347656 -2.046875 13.953125 -1.046875 C 12.554688 -0.0546875 10.859375 0.4375 8.859375 0.4375 C 6.484375 0.4375 4.550781 -0.300781 3.0625 -1.78125 C 1.582031 -3.257812 0.84375 -5.394531 0.84375 -8.1875 C 0.84375 -10.738281 1.609375 -12.832031 3.140625 -14.46875 C 4.679688 -16.101562 6.703125 -16.921875 9.203125 -16.921875 C 11.617188 -16.921875 13.507812 -16.125 14.875 -14.53125 C 16.238281 -12.9375 16.921875 -10.953125 16.921875 -8.578125 Z M 9.015625 -13.90625 C 6.890625 -13.90625 5.640625 -12.578125 5.265625 -9.921875 L 12.515625 -9.921875 C 12.222656 -12.578125 11.054688 -13.90625 9.015625 -13.90625 Z M 9.015625 -13.90625 "/></g></g></g><g fill="#000000" fill-opacity="1"><g transform="translate(401.034706, 193.118899)"><g><path d="M 17.96875 -22.78125 L 17.96875 0 L 13.6875 0 L 13.6875 -2.546875 L 12.453125 -0.71875 C 11.460938 0.0507812 10.039062 0.4375 8.1875 0.4375 C 5.90625 0.4375 4.109375 -0.335938 2.796875 -1.890625 C 1.492188 -3.441406 0.84375 -5.457031 0.84375 -7.9375 C 0.84375 -10.78125 1.59375 -12.988281 3.09375 -14.5625 C 4.601562 -16.132812 6.484375 -16.921875 8.734375 -16.921875 C 10.429688 -16.921875 11.722656 -16.609375 12.609375 -15.984375 L 13.6875 -14.28125 L 13.6875 -22.78125 Z M 9.421875 -2.578125 C 10.703125 -2.578125 11.734375 -3.015625 12.515625 -3.890625 C 13.296875 -4.765625 13.6875 -6.15625 13.6875 -8.0625 L 13.6875 -8.859375 C 13.6875 -10.578125 13.285156 -11.847656 12.484375 -12.671875 C 11.679688 -13.492188 10.710938 -13.90625 9.578125 -13.90625 C 8.296875 -13.90625 7.253906 -13.414062 6.453125 -12.4375 C 5.660156 -11.457031 5.265625 -10.046875 5.265625 -8.203125 C 5.265625 -6.515625 5.640625 -5.15625 6.390625 -4.125 C 7.148438 -3.09375 8.160156 -2.578125 9.421875 -2.578125 Z M 9.421875 -2.578125 "/></g></g></g><g fill="#000000" fill-opacity="1"><g transform="translate(419.870328, 193.118899)"><g/></g></g><g fill="#000000" fill-opacity="1"><g transform="translate(424.73412, 193.118899)"><g><path d="M 16.796875 -21.375 L 16.796875 -8.765625 C 16.796875 -7.710938 16.765625 -6.734375 16.703125 -5.828125 C 16.578125 -3.878906 15.882812 -2.347656 14.625 -1.234375 C 13.363281 -0.117188 11.515625 0.4375 9.078125 0.4375 C 6.660156 0.4375 4.828125 -0.1875 3.578125 -1.4375 C 2.328125 -2.6875 1.671875 -4.4375 1.609375 -6.6875 L 1.578125 -7.78125 L 5.859375 -7.78125 L 5.921875 -6.6875 C 6.066406 -4.0625 7.203125 -2.75 9.328125 -2.75 C 11.222656 -2.75 12.273438 -3.859375 12.484375 -6.078125 C 12.503906 -6.523438 12.515625 -7.273438 12.515625 -8.328125 L 12.515625 -21.375 Z M 16.796875 -21.375 "/></g></g></g><g fill="#000000" fill-opacity="1"><g transform="translate(442.051722, 193.118899)"><g><path d="M 3.09375 -14.515625 C 4.601562 -16.117188 6.703125 -16.921875 9.390625 -16.921875 C 12.078125 -16.921875 14.171875 -16.117188 15.671875 -14.515625 C 17.179688 -12.910156 17.9375 -10.816406 17.9375 -8.234375 C 17.9375 -5.679688 17.179688 -3.597656 15.671875 -1.984375 C 14.171875 -0.367188 12.078125 0.4375 9.390625 0.4375 C 6.703125 0.4375 4.601562 -0.367188 3.09375 -1.984375 C 1.59375 -3.597656 0.84375 -5.679688 0.84375 -8.234375 C 0.84375 -10.816406 1.59375 -12.910156 3.09375 -14.515625 Z M 6.359375 -4.078125 C 7.097656 -3.078125 8.109375 -2.578125 9.390625 -2.578125 C 10.671875 -2.578125 11.675781 -3.078125 12.40625 -4.078125 C 13.144531 -5.078125 13.515625 -6.460938 13.515625 -8.234375 C 13.515625 -10.015625 13.144531 -11.40625 12.40625 -12.40625 C 11.675781 -13.40625 10.671875 -13.90625 9.390625 -13.90625 C 8.109375 -13.90625 7.097656 -13.40625 6.359375 -12.40625 C 5.628906 -11.40625 5.265625 -10.015625 5.265625 -8.234375 C 5.265625 -6.460938 5.628906 -5.078125 6.359375 -4.078125 Z M 6.359375 -4.078125 "/></g></g></g><g fill="#000000" fill-opacity="1"><g transform="translate(459.679127, 193.118899)"><g><path d="M 11.75 -16.921875 C 14.019531 -16.921875 15.8125 -16.144531 17.125 -14.59375 C 18.4375 -13.039062 19.09375 -11.023438 19.09375 -8.546875 C 19.09375 -5.703125 18.335938 -3.492188 16.828125 -1.921875 C 15.316406 -0.347656 13.4375 0.4375 11.1875 0.4375 C 9.488281 0.4375 8.195312 0.125 7.3125 -0.5 L 6.234375 -2.203125 L 6.234375 0 L 1.953125 0 L 1.953125 -22.78125 L 6.234375 -22.78125 L 6.234375 -13.96875 L 7.46875 -15.765625 C 8.414062 -16.535156 9.84375 -16.921875 11.75 -16.921875 Z M 10.34375 -2.578125 C 11.625 -2.578125 12.660156 -3.066406 13.453125 -4.046875 C 14.253906 -5.023438 14.65625 -6.429688 14.65625 -8.265625 C 14.65625 -9.960938 14.273438 -11.328125 13.515625 -12.359375 C 12.765625 -13.390625 11.757812 -13.90625 10.5 -13.90625 C 9.21875 -13.90625 8.1875 -13.46875 7.40625 -12.59375 C 6.625 -11.71875 6.234375 -10.328125 6.234375 -8.421875 L 6.234375 -7.65625 C 6.234375 -5.914062 6.632812 -4.632812 7.4375 -3.8125 C 8.238281 -2.988281 9.207031 -2.578125 10.34375 -2.578125 Z M 10.34375 -2.578125 "/></g></g></g><g fill="#000000" fill-opacity="1"><g transform="translate(478.452764, 193.118899)"><g/></g></g><g fill="#000000" fill-opacity="1"><g transform="translate(483.316545, 193.118899)"><g><path d="M 13.265625 -21.21875 C 14.972656 -21.039062 16.359375 -20.382812 17.421875 -19.25 C 18.492188 -18.125 19.03125 -16.613281 19.03125 -14.71875 C 19.03125 -12.832031 18.476562 -11.328125 17.375 -10.203125 C 16.28125 -9.078125 14.910156 -8.410156 13.265625 -8.203125 C 12.367188 -8.109375 11.332031 -8.0625 10.15625 -8.0625 L 7.03125 -8.0625 L 7.03125 0 L 2.75 0 L 2.75 -21.375 L 10.15625 -21.375 C 11.351562 -21.375 12.390625 -21.320312 13.265625 -21.21875 Z M 11.984375 -11.53125 C 13.679688 -11.769531 14.53125 -12.828125 14.53125 -14.703125 C 14.53125 -16.585938 13.679688 -17.65625 11.984375 -17.90625 C 11.515625 -17.96875 10.882812 -18 10.09375 -18 L 7.03125 -18 L 7.03125 -11.4375 L 10.09375 -11.4375 C 10.882812 -11.4375 11.515625 -11.46875 11.984375 -11.53125 Z M 11.984375 -11.53125 "/></g></g></g><g fill="#000000" fill-opacity="1"><g transform="translate(501.470598, 193.118899)"><g><path d="M 11.53125 0 L 11.21875 -2.421875 L 10.40625 -0.65625 C 9.332031 0.0703125 7.972656 0.4375 6.328125 0.4375 C 4.816406 0.4375 3.550781 0.015625 2.53125 -0.828125 C 1.519531 -1.679688 1.015625 -2.863281 1.015625 -4.375 C 1.015625 -6.1875 1.785156 -7.582031 3.328125 -8.5625 C 4.867188 -9.539062 7.125 -10.03125 10.09375 -10.03125 L 11.15625 -10.03125 L 11.15625 -10.375 C 11.15625 -11.039062 11.132812 -11.554688 11.09375 -11.921875 C 10.945312 -13.242188 10.097656 -13.90625 8.546875 -13.90625 C 6.835938 -13.90625 5.921875 -12.976562 5.796875 -11.125 L 1.640625 -11.09375 C 1.703125 -12.90625 2.390625 -14.328125 3.703125 -15.359375 C 5.015625 -16.398438 6.679688 -16.921875 8.703125 -16.921875 C 12.816406 -16.921875 15.019531 -15.296875 15.3125 -12.046875 C 15.375 -11.265625 15.40625 -10.421875 15.40625 -9.515625 L 15.40625 -4.1875 C 15.40625 -2.925781 15.503906 -1.53125 15.703125 0 Z M 7.96875 -2.578125 C 8.875 -2.578125 9.628906 -2.882812 10.234375 -3.5 C 10.847656 -4.125 11.15625 -4.984375 11.15625 -6.078125 L 11.15625 -7.40625 C 7.351562 -7.675781 5.453125 -6.773438 5.453125 -4.703125 C 5.453125 -3.285156 6.289062 -2.578125 7.96875 -2.578125 Z M 7.96875 -2.578125 "/></g></g></g><g fill="#000000" fill-opacity="1"><g transform="translate(517.734891, 193.118899)"><g><path d="M 10.34375 -16.890625 C 10.820312 -16.890625 11.226562 -16.847656 11.5625 -16.765625 L 11.5625 -13.328125 C 9.738281 -13.453125 8.394531 -13.0625 7.53125 -12.15625 C 6.664062 -11.257812 6.234375 -9.726562 6.234375 -7.5625 L 6.234375 0 L 1.953125 0 L 1.953125 -16.484375 L 6.234375 -16.484375 L 6.234375 -13.484375 L 7.53125 -15.765625 C 8.332031 -16.515625 9.269531 -16.890625 10.34375 -16.890625 Z M 10.34375 -16.890625 "/></g></g></g><g fill="#000000" fill-opacity="1"><g transform="translate(528.360889, 193.118899)"><g><path d="M 7.0625 -13.546875 L 7.0625 -5.921875 C 7.0625 -5.234375 7.070312 -4.75 7.09375 -4.46875 C 7.15625 -3.65625 7.390625 -3.128906 7.796875 -2.890625 C 8.210938 -2.660156 9.007812 -2.585938 10.1875 -2.671875 L 10.1875 0.125 C 9.300781 0.269531 8.363281 0.34375 7.375 0.34375 C 5.800781 0.34375 4.675781 0.0820312 4 -0.4375 C 3.332031 -0.96875 2.945312 -1.832031 2.84375 -3.03125 C 2.800781 -3.53125 2.78125 -4.328125 2.78125 -5.421875 L 2.78125 -13.546875 L 0.375 -13.546875 L 0.375 -16.359375 L 2.78125 -16.359375 L 2.78125 -20.421875 L 7.0625 -20.421875 L 7.0625 -16.359375 L 10.46875 -16.359375 L 10.46875 -13.546875 Z M 7.0625 -13.546875 "/></g></g></g><g fill="#000000" fill-opacity="1"><g transform="translate(538.398265, 193.118899)"><g><path d="M 17.3125 -12.296875 C 17.394531 -11.554688 17.4375 -10.554688 17.4375 -9.296875 L 17.4375 0 L 13.171875 0 L 13.171875 -8.703125 C 13.171875 -9.671875 13.148438 -10.4375 13.109375 -11 C 12.960938 -12.9375 11.910156 -13.90625 9.953125 -13.90625 C 8.828125 -13.90625 7.925781 -13.382812 7.25 -12.34375 C 6.570312 -11.300781 6.234375 -9.695312 6.234375 -7.53125 L 6.234375 0 L 1.953125 0 L 1.953125 -16.484375 L 6.234375 -16.484375 L 6.234375 -13.8125 L 7.5 -15.765625 C 8.570312 -16.535156 9.894531 -16.921875 11.46875 -16.921875 C 13.195312 -16.921875 14.5625 -16.515625 15.5625 -15.703125 C 16.570312 -14.898438 17.15625 -13.765625 17.3125 -12.296875 Z M 17.3125 -12.296875 "/></g></g></g><g fill="#000000" fill-opacity="1"><g transform="translate(556.490346, 193.118899)"><g><path d="M 16.921875 -8.578125 C 16.921875 -7.984375 16.898438 -7.5 16.859375 -7.125 L 5.140625 -7.125 C 5.390625 -4.09375 6.660156 -2.578125 8.953125 -2.578125 C 9.878906 -2.578125 10.644531 -2.820312 11.25 -3.3125 C 11.863281 -3.8125 12.242188 -4.492188 12.390625 -5.359375 L 16.671875 -5.359375 C 16.253906 -3.484375 15.347656 -2.046875 13.953125 -1.046875 C 12.554688 -0.0546875 10.859375 0.4375 8.859375 0.4375 C 6.484375 0.4375 4.550781 -0.300781 3.0625 -1.78125 C 1.582031 -3.257812 0.84375 -5.394531 0.84375 -8.1875 C 0.84375 -10.738281 1.609375 -12.832031 3.140625 -14.46875 C 4.679688 -16.101562 6.703125 -16.921875 9.203125 -16.921875 C 11.617188 -16.921875 13.507812 -16.125 14.875 -14.53125 C 16.238281 -12.9375 16.921875 -10.953125 16.921875 -8.578125 Z M 9.015625 -13.90625 C 6.890625 -13.90625 5.640625 -12.578125 5.265625 -9.921875 L 12.515625 -9.921875 C 12.222656 -12.578125 11.054688 -13.90625 9.015625 -13.90625 Z M 9.015625 -13.90625 "/></g></g></g><g fill="#000000" fill-opacity="1"><g transform="translate(573.250302, 193.118899)"><g><path d="M 10.34375 -16.890625 C 10.820312 -16.890625 11.226562 -16.847656 11.5625 -16.765625 L 11.5625 -13.328125 C 9.738281 -13.453125 8.394531 -13.0625 7.53125 -12.15625 C 6.664062 -11.257812 6.234375 -9.726562 6.234375 -7.5625 L 6.234375 0 L 1.953125 0 L 1.953125 -16.484375 L 6.234375 -16.484375 L 6.234375 -13.484375 L 7.53125 -15.765625 C 8.332031 -16.515625 9.269531 -16.890625 10.34375 -16.890625 Z M 10.34375 -16.890625 "/></g></g></g></svg>