<svg xmlns="http://www.w3.org/2000/svg" xmlns:xlink="http://www.w3.org/1999/xlink" width="500" zoomAndPan="magnify" viewBox="0 0 375 374.999991" height="500" preserveAspectRatio="xMidYMid meet" version="1.0"><defs><g/><clipPath id="54ba53bcb3"><path d="M 92.050781 162.105469 L 105.550781 162.105469 L 105.550781 208.605469 L 92.050781 208.605469 Z M 92.050781 162.105469 " clip-rule="nonzero"/></clipPath></defs><rect x="-37.5" width="450" fill="#ffffff" y="-37.499999" height="449.999989" fill-opacity="1"/><rect x="-37.5" width="450" fill="#ffffff" y="-37.499999" height="449.999989" fill-opacity="1"/><g clip-path="url(#54ba53bcb3)"><path fill="#e92927" d="M 105.542969 201.566406 L 100.863281 168.632812 C 100.863281 168.632812 102.949219 165.085938 103.421875 162.597656 C 103.421875 162.597656 103.160156 162.183594 98.800781 162.183594 C 94.441406 162.183594 94.179688 162.597656 94.179688 162.597656 C 94.65625 165.085938 96.738281 168.632812 96.738281 168.632812 L 92.058594 201.566406 C 92.050781 201.617188 92.070312 201.671875 92.109375 201.710938 L 98.667969 208.449219 C 98.738281 208.523438 98.859375 208.523438 98.929688 208.449219 L 105.492188 201.714844 C 105.53125 201.671875 105.550781 201.621094 105.542969 201.566406 Z M 105.542969 201.566406 " fill-opacity="1" fill-rule="nonzero"/></g><path fill="#bf2025" d="M 98.800781 169.28125 L 98.804688 169.28125 C 99.609375 169.273438 100.28125 169.203125 100.925781 169.070312 L 100.863281 168.628906 C 100.324219 168.746094 99.683594 168.824219 98.800781 168.835938 C 97.917969 168.828125 97.277344 168.746094 96.738281 168.628906 L 96.675781 169.070312 C 97.316406 169.203125 97.992188 169.269531 98.796875 169.28125 Z M 98.800781 169.28125 " fill-opacity="1" fill-rule="nonzero"/><g fill="#de3c3c" fill-opacity="1"><g transform="translate(204.313599, 202.183787)"><g><path d="M 6.0625 -40.109375 C 6.59375 -40.140625 7.457031 -40.15625 8.65625 -40.15625 C 9.269531 -40.15625 9.960938 -40.15625 10.734375 -40.15625 C 12.503906 -40.15625 13.609375 -40.132812 14.046875 -40.09375 C 14.492188 -40.0625 14.890625 -39.910156 15.234375 -39.640625 C 15.691406 -39.367188 16.273438 -38.757812 16.984375 -37.8125 C 17.703125 -36.875 18.710938 -35.445312 20.015625 -33.53125 C 21.898438 -30.757812 22.976562 -29.125 23.25 -28.625 C 27.21875 -21.695312 29.410156 -17.828125 29.828125 -17.015625 C 29.867188 -16.941406 29.910156 -16.90625 29.953125 -16.90625 C 29.984375 -16.90625 30.019531 -17.003906 30.0625 -17.203125 C 30.132812 -17.773438 30.171875 -21.46875 30.171875 -28.28125 L 30.234375 -38.890625 L 30.703125 -39.46875 C 30.929688 -39.78125 31.207031 -39.960938 31.53125 -40.015625 C 31.863281 -40.078125 32.78125 -40.144531 34.28125 -40.21875 C 34.96875 -40.257812 35.5625 -40.28125 36.0625 -40.28125 C 37.101562 -40.28125 37.796875 -40.222656 38.140625 -40.109375 L 38.890625 -39.8125 L 39 -35.203125 C 39.125 -32.117188 39.1875 -27.519531 39.1875 -21.40625 C 39.1875 -19.863281 39.1875 -18.226562 39.1875 -16.5 C 39.144531 -6.226562 39.046875 -0.921875 38.890625 -0.578125 C 38.773438 -0.304688 38.601562 -0.148438 38.375 -0.109375 C 38.0625 -0.078125 36.945312 -0.0195312 35.03125 0.0625 C 34.414062 0.09375 33.914062 0.109375 33.53125 0.109375 C 33.332031 0.109375 33.085938 0.0976562 32.796875 0.078125 C 32.515625 0.0664062 32.238281 -0.0507812 31.96875 -0.28125 C 31.082031 -0.976562 29.023438 -3.882812 25.796875 -9 C 22.566406 -14.113281 19.523438 -18.828125 16.671875 -23.140625 C 14.484375 -26.523438 13.367188 -28.238281 13.328125 -28.28125 C 13.328125 -28.238281 13.328125 -28.21875 13.328125 -28.21875 C 13.328125 -28.175781 13.328125 -28.15625 13.328125 -28.15625 L 13.328125 -28.09375 C 13.328125 -28.0625 13.328125 -28.046875 13.328125 -28.046875 L 13.328125 -27.640625 C 13.328125 -27.640625 13.328125 -27.617188 13.328125 -27.578125 L 13.328125 -27.40625 C 13.328125 -27.363281 13.328125 -27.328125 13.328125 -27.296875 L 13.328125 -27.234375 C 13.328125 -27.191406 13.328125 -27.171875 13.328125 -27.171875 L 13.328125 -27.125 C 13.328125 -27.039062 13.328125 -26.960938 13.328125 -26.890625 L 13.328125 -26.828125 C 13.328125 -26.796875 13.328125 -26.757812 13.328125 -26.71875 L 13.328125 -26.484375 C 13.328125 -26.441406 13.328125 -26.382812 13.328125 -26.3125 L 13.328125 -25.453125 C 13.328125 -25.410156 13.328125 -25.367188 13.328125 -25.328125 L 13.328125 -25.046875 C 13.328125 -23.960938 13.34375 -22.796875 13.375 -21.546875 C 13.414062 -20.296875 13.4375 -18.847656 13.4375 -17.203125 C 13.476562 -12.078125 13.5 -8.207031 13.5 -5.59375 C 13.5 -2.9375 13.476562 -1.535156 13.4375 -1.390625 C 13.320312 -0.960938 13.015625 -0.632812 12.515625 -0.40625 C 12.171875 -0.175781 11.773438 -0.0390625 11.328125 0 C 10.890625 0.0390625 9.941406 0.0625 8.484375 0.0625 C 6.898438 0.0625 5.925781 0.0390625 5.5625 0 C 5.195312 -0.0390625 4.878906 -0.175781 4.609375 -0.40625 L 4.046875 -0.859375 L 4.046875 -22.09375 C 4.046875 -33.519531 4.101562 -39.289062 4.21875 -39.40625 C 4.25 -39.519531 4.320312 -39.578125 4.4375 -39.578125 C 4.476562 -39.578125 4.535156 -39.5625 4.609375 -39.53125 C 4.648438 -39.53125 4.691406 -39.53125 4.734375 -39.53125 C 4.847656 -39.53125 4.941406 -39.601562 5.015625 -39.75 C 5.097656 -39.945312 5.445312 -40.066406 6.0625 -40.109375 Z M 6.0625 -40.109375 "/></g></g></g><g fill="#de3c3c" fill-opacity="1"><g transform="translate(242.738917, 202.183787)"><g><path d="M 13.21875 -29.25 C 14.601562 -29.5625 15.929688 -29.71875 17.203125 -29.71875 C 18.273438 -29.71875 19.628906 -29.539062 21.265625 -29.1875 C 22.898438 -28.84375 24.425781 -28.019531 25.84375 -26.71875 C 27.15625 -25.519531 28.078125 -24.207031 28.609375 -22.78125 C 29.148438 -21.363281 29.460938 -19.425781 29.546875 -16.96875 C 29.585938 -16.15625 29.609375 -15.460938 29.609375 -14.890625 C 29.609375 -14.046875 29.566406 -13.488281 29.484375 -13.21875 C 29.410156 -12.832031 29.320312 -12.597656 29.21875 -12.515625 C 29.125 -12.441406 28.867188 -12.40625 28.453125 -12.40625 C 27.835938 -12.40625 26.066406 -12.257812 23.140625 -11.96875 C 20.210938 -11.6875 17.613281 -11.546875 15.34375 -11.546875 L 11.9375 -11.546875 L 12.125 -10.96875 C 12.382812 -9.882812 13.101562 -8.96875 14.28125 -8.21875 C 15.457031 -7.46875 16.773438 -7.09375 18.234375 -7.09375 C 20.003906 -7.09375 21.617188 -7.691406 23.078125 -8.890625 C 23.734375 -9.421875 24.140625 -9.6875 24.296875 -9.6875 C 24.410156 -9.6875 25.226562 -8.890625 26.75 -7.296875 C 28.269531 -5.703125 29.046875 -4.804688 29.078125 -4.609375 C 29.078125 -4.609375 29.078125 -4.59375 29.078125 -4.5625 C 29.078125 -4.363281 28.5 -3.84375 27.34375 -3 C 26.195312 -2.15625 25.179688 -1.519531 24.296875 -1.09375 C 23.140625 -0.550781 22.03125 -0.148438 20.96875 0.109375 C 19.914062 0.378906 18.640625 0.515625 17.140625 0.515625 C 13.484375 0.515625 10.421875 -0.414062 7.953125 -2.28125 C 5.492188 -4.144531 3.765625 -6.789062 2.765625 -10.21875 C 2.460938 -11.332031 2.3125 -12.832031 2.3125 -14.71875 C 2.3125 -16.445312 2.425781 -17.847656 2.65625 -18.921875 C 2.882812 -20.003906 3.347656 -21.21875 4.046875 -22.5625 C 4.960938 -24.375 6.171875 -25.828125 7.671875 -26.921875 C 9.171875 -28.015625 11.019531 -28.789062 13.21875 -29.25 Z M 19.453125 -22.625 C 18.796875 -22.925781 18.140625 -23.078125 17.484375 -23.078125 C 16.984375 -23.078125 16.257812 -22.921875 15.3125 -22.609375 C 14.375 -22.304688 13.519531 -21.597656 12.75 -20.484375 C 12.132812 -19.640625 11.828125 -19.0625 11.828125 -18.75 C 11.828125 -18.71875 11.84375 -18.632812 11.875 -18.5 C 11.914062 -18.363281 12.515625 -18.296875 13.671875 -18.296875 C 14.753906 -18.296875 16.425781 -18.378906 18.6875 -18.546875 C 20.957031 -18.722656 22.113281 -18.832031 22.15625 -18.875 C 22.195312 -18.90625 22.21875 -18.976562 22.21875 -19.09375 C 22.21875 -19.289062 22.070312 -19.6875 21.78125 -20.28125 C 21.488281 -20.875 21.210938 -21.328125 20.953125 -21.640625 C 20.597656 -21.984375 20.097656 -22.3125 19.453125 -22.625 Z M 19.453125 -22.625 "/></g></g></g><g fill="#de3c3c" fill-opacity="1"><g transform="translate(269.5095, 202.183787)"><g><path d="M 17.65625 -29.609375 C 18.3125 -29.753906 19.253906 -29.828125 20.484375 -29.828125 C 20.710938 -29.828125 20.960938 -29.828125 21.234375 -29.828125 C 23.578125 -29.753906 25.535156 -29.253906 27.109375 -28.328125 C 28.691406 -27.410156 30.082031 -25.929688 31.28125 -23.890625 C 32.039062 -22.617188 32.601562 -21.097656 32.96875 -19.328125 C 33.34375 -17.554688 33.53125 -16.019531 33.53125 -14.71875 C 33.53125 -14.332031 33.507812 -13.96875 33.46875 -13.625 C 33.125 -9.5 31.625 -6.113281 28.96875 -3.46875 C 27.582031 -2.082031 26.265625 -1.144531 25.015625 -0.65625 C 23.765625 -0.175781 22.390625 0.0625 20.890625 0.0625 C 20.546875 0.0625 20.195312 0.0390625 19.84375 0 C 19.039062 -0.0390625 18.4375 -0.0976562 18.03125 -0.171875 C 17.625 -0.242188 17.054688 -0.472656 16.328125 -0.859375 C 15.253906 -1.398438 14.273438 -2.09375 13.390625 -2.9375 L 12.125 -4.15625 L 12.125 1.4375 C 12.125 5.019531 12.0625 6.960938 11.9375 7.265625 C 11.863281 7.691406 11.5 8.078125 10.84375 8.421875 C 10.425781 8.648438 10.09375 8.789062 9.84375 8.84375 C 9.59375 8.90625 9.3125 8.9375 9 8.9375 C 8.65625 8.9375 8.234375 8.921875 7.734375 8.890625 C 6.304688 8.804688 5.265625 8.628906 4.609375 8.359375 L 3.578125 7.96875 L 3.578125 -29.25 L 12.0625 -29.140625 L 12.125 -27.703125 C 12.15625 -26.617188 12.191406 -26.078125 12.234375 -26.078125 C 12.304688 -26.078125 12.726562 -26.460938 13.5 -27.234375 C 14.15625 -27.890625 14.789062 -28.390625 15.40625 -28.734375 C 16.019531 -29.078125 16.769531 -29.367188 17.65625 -29.609375 Z M 21.515625 -21.515625 C 21.171875 -21.753906 20.84375 -21.910156 20.53125 -21.984375 C 20.226562 -22.054688 19.789062 -22.113281 19.21875 -22.15625 C 18.25 -22.15625 17.535156 -22.078125 17.078125 -21.921875 C 16.503906 -21.691406 15.9375 -21.304688 15.375 -20.765625 C 14.820312 -20.234375 14.390625 -19.660156 14.078125 -19.046875 C 13.804688 -18.460938 13.648438 -17.96875 13.609375 -17.5625 C 13.578125 -17.164062 13.5625 -16.351562 13.5625 -15.125 C 13.5625 -13.882812 13.585938 -13.0625 13.640625 -12.65625 C 13.703125 -12.257812 13.867188 -11.769531 14.140625 -11.1875 C 14.523438 -10.34375 14.910156 -9.671875 15.296875 -9.171875 C 15.679688 -8.671875 16.140625 -8.25 16.671875 -7.90625 C 17.023438 -7.675781 17.296875 -7.539062 17.484375 -7.5 C 17.671875 -7.457031 17.84375 -7.4375 18 -7.4375 C 18.226562 -7.4375 18.519531 -7.457031 18.875 -7.5 C 19.675781 -7.539062 20.335938 -7.710938 20.859375 -8.015625 C 21.378906 -8.328125 21.890625 -8.847656 22.390625 -9.578125 C 23.191406 -10.734375 23.660156 -11.835938 23.796875 -12.890625 C 23.929688 -13.953125 24 -14.734375 24 -15.234375 C 24 -16.304688 23.804688 -17.457031 23.421875 -18.6875 C 23.035156 -19.925781 22.398438 -20.867188 21.515625 -21.515625 Z M 21.515625 -21.515625 "/></g></g></g><g fill="#de3c3c" fill-opacity="1"><g transform="translate(299.914983, 202.183787)"><g><path d="M 12.640625 -29.203125 C 13.671875 -29.429688 14.648438 -29.554688 15.578125 -29.578125 C 16.503906 -29.597656 17.046875 -29.609375 17.203125 -29.609375 C 18.734375 -29.609375 19.90625 -29.488281 20.71875 -29.25 C 22.832031 -28.71875 24.53125 -27.796875 25.8125 -26.484375 C 27.101562 -25.179688 27.90625 -23.566406 28.21875 -21.640625 C 28.375 -20.640625 28.46875 -16.90625 28.5 -10.4375 L 28.5625 -0.640625 L 27.921875 -0.40625 C 27.578125 -0.289062 26.960938 -0.222656 26.078125 -0.203125 C 25.191406 -0.179688 24.613281 -0.171875 24.34375 -0.171875 C 23.46875 -0.171875 22.816406 -0.207031 22.390625 -0.28125 C 22.117188 -0.320312 21.925781 -0.425781 21.8125 -0.59375 C 21.695312 -0.769531 21.523438 -1.109375 21.296875 -1.609375 C 21.023438 -2.347656 20.890625 -2.847656 20.890625 -3.109375 C 20.890625 -3.347656 20.847656 -3.46875 20.765625 -3.46875 C 20.648438 -3.46875 20.328125 -3.21875 19.796875 -2.71875 C 19.179688 -2.132812 18.4375 -1.59375 17.5625 -1.09375 C 16.695312 -0.59375 15.882812 -0.226562 15.125 0 C 14.238281 0.269531 13.046875 0.40625 11.546875 0.40625 C 11.429688 0.40625 10.9375 0.394531 10.0625 0.375 C 9.195312 0.351562 8.398438 0.207031 7.671875 -0.0625 C 3.898438 -1.5625 2.015625 -4.425781 2.015625 -8.65625 C 2.015625 -8.695312 2.015625 -8.734375 2.015625 -8.765625 C 2.015625 -10.265625 2.21875 -11.46875 2.625 -12.375 C 3.03125 -13.28125 3.753906 -14.253906 4.796875 -15.296875 C 5.410156 -15.867188 5.925781 -16.296875 6.34375 -16.578125 C 6.769531 -16.867188 7.347656 -17.148438 8.078125 -17.421875 C 10.234375 -18.304688 13.210938 -18.75 17.015625 -18.75 C 18.398438 -18.75 19.238281 -18.769531 19.53125 -18.8125 C 19.820312 -18.851562 19.96875 -18.945312 19.96875 -19.09375 C 19.96875 -19.707031 19.707031 -20.34375 19.1875 -21 C 18.664062 -21.65625 18.039062 -22.117188 17.3125 -22.390625 C 16.695312 -22.617188 15.945312 -22.734375 15.0625 -22.734375 C 14.832031 -22.734375 14.359375 -22.710938 13.640625 -22.671875 C 12.929688 -22.640625 12.019531 -22.429688 10.90625 -22.046875 C 9.5625 -21.617188 8.8125 -21.382812 8.65625 -21.34375 C 8.539062 -21.34375 8.425781 -21.492188 8.3125 -21.796875 C 8.195312 -22.109375 8.039062 -22.632812 7.84375 -23.375 C 7.5 -24.875 7.328125 -25.832031 7.328125 -26.25 C 7.328125 -26.40625 7.328125 -26.519531 7.328125 -26.59375 C 7.328125 -26.832031 7.351562 -27 7.40625 -27.09375 C 7.46875 -27.1875 7.691406 -27.367188 8.078125 -27.640625 C 9.078125 -28.140625 10.597656 -28.660156 12.640625 -29.203125 Z M 19.96875 -9.34375 L 19.96875 -12.46875 L 17.765625 -12.40625 C 16.421875 -12.40625 15.398438 -12.347656 14.703125 -12.234375 C 14.015625 -12.117188 13.363281 -11.90625 12.75 -11.59375 C 11.863281 -11.09375 11.34375 -10.5625 11.1875 -10 C 11.039062 -9.445312 10.96875 -9.054688 10.96875 -8.828125 C 10.96875 -8.253906 11.195312 -7.773438 11.65625 -7.390625 C 12.269531 -6.773438 13.097656 -6.46875 14.140625 -6.46875 C 14.410156 -6.46875 14.988281 -6.53125 15.875 -6.65625 C 16.757812 -6.789062 17.757812 -7.378906 18.875 -8.421875 Z M 19.96875 -9.34375 "/></g></g></g><g fill="#de3c3c" fill-opacity="1"><g transform="translate(326.108596, 202.183787)"><g><path d="M 4.90625 -42.125 C 5.175781 -42.164062 6.40625 -42.1875 8.59375 -42.1875 L 11.765625 -42.125 L 11.765625 0.515625 L 8.359375 0.515625 C 6.054688 0.515625 4.75 0.421875 4.4375 0.234375 L 3.984375 -0.0625 L 3.984375 -20.375 C 3.984375 -33.5625 4.019531 -40.332031 4.09375 -40.6875 C 4.207031 -41.03125 4.363281 -41.203125 4.5625 -41.203125 C 4.71875 -41.203125 4.796875 -41.21875 4.796875 -41.25 C 4.796875 -41.289062 4.753906 -41.351562 4.671875 -41.4375 C 4.515625 -41.582031 4.4375 -41.710938 4.4375 -41.828125 C 4.4375 -41.828125 4.445312 -41.851562 4.46875 -41.90625 C 4.488281 -41.96875 4.632812 -42.039062 4.90625 -42.125 Z M 4.90625 -42.125 "/></g></g></g><g fill="#de3c3c" fill-opacity="1"><g transform="translate(337.127987, 202.183787)"><g><path d="M 6.578125 -7.796875 C 7.078125 -7.910156 7.863281 -7.984375 8.9375 -8.015625 C 9.632812 -8.015625 10.144531 -7.976562 10.46875 -7.90625 C 10.800781 -7.832031 11.21875 -7.675781 11.71875 -7.4375 C 12.175781 -7.207031 12.507812 -6.988281 12.71875 -6.78125 C 12.9375 -6.570312 13.140625 -6.273438 13.328125 -5.890625 C 13.753906 -5.003906 13.96875 -4.0625 13.96875 -3.0625 C 13.96875 -2.632812 13.925781 -2.191406 13.84375 -1.734375 C 13.726562 -0.960938 13.503906 -0.359375 13.171875 0.078125 C 12.847656 0.523438 12.378906 0.90625 11.765625 1.21875 C 11.347656 1.445312 11.003906 1.578125 10.734375 1.609375 C 10.460938 1.648438 10.175781 1.671875 9.875 1.671875 C 9.5625 1.671875 9.191406 1.648438 8.765625 1.609375 C 6.804688 1.578125 5.488281 1.203125 4.8125 0.484375 C 4.144531 -0.222656 3.8125 -1.382812 3.8125 -3 C 3.8125 -3.15625 3.8125 -3.328125 3.8125 -3.515625 C 3.925781 -5.984375 4.847656 -7.410156 6.578125 -7.796875 Z M 6.578125 -7.796875 "/></g></g></g><g fill="#000000" fill-opacity="1"><g transform="translate(107.694517, 202.183787)"><g><path d="M 5.71875 -40.328125 C 6.632812 -40.367188 9.59375 -40.390625 14.59375 -40.390625 C 17.632812 -40.347656 19.78125 -40.296875 21.03125 -40.234375 C 22.28125 -40.179688 23.289062 -40.050781 24.0625 -39.84375 C 24.832031 -39.632812 25.695312 -39.28125 26.65625 -38.78125 C 27.582031 -38.3125 28.488281 -37.644531 29.375 -36.78125 C 30.257812 -35.914062 30.875 -35.082031 31.21875 -34.28125 C 31.5625 -33.539062 31.847656 -32.601562 32.078125 -31.46875 C 32.304688 -30.34375 32.421875 -29.351562 32.421875 -28.5 C 32.421875 -27.695312 32.273438 -26.671875 31.984375 -25.421875 C 31.703125 -24.171875 31.367188 -23.179688 30.984375 -22.453125 C 30.566406 -21.640625 29.941406 -20.789062 29.109375 -19.90625 C 28.285156 -19.019531 27.46875 -18.328125 26.65625 -17.828125 C 26.351562 -17.640625 26.078125 -17.4375 25.828125 -17.21875 C 25.578125 -17.007812 25.453125 -16.867188 25.453125 -16.796875 C 25.453125 -16.679688 26.257812 -15.160156 27.875 -12.234375 C 29.488281 -9.304688 30.738281 -7.113281 31.625 -5.65625 C 32.65625 -4.113281 33.460938 -2.921875 34.046875 -2.078125 C 34.890625 -0.878906 35.3125 -0.222656 35.3125 -0.109375 C 35.3125 -0.109375 35.300781 -0.0859375 35.28125 -0.046875 C 35.257812 -0.015625 33.578125 0 30.234375 0 L 25.28125 0 L 24.53125 -1.03125 C 23.601562 -2.34375 21.960938 -4.988281 19.609375 -8.96875 C 17.265625 -12.945312 16.09375 -15.113281 16.09375 -15.46875 C 16.09375 -15.582031 15.84375 -15.640625 15.34375 -15.640625 L 13.390625 -15.640625 L 13.5 0 L 4.046875 -0.109375 L 4.046875 -18.34375 C 4.046875 -30.382812 4.101562 -37.082031 4.21875 -38.4375 L 4.328125 -40.28125 Z M 13.328125 -22.84375 C 15.023438 -22.925781 16.351562 -22.988281 17.3125 -23.03125 C 19.039062 -23.101562 20.425781 -23.582031 21.46875 -24.46875 C 22.507812 -25.351562 23.03125 -26.46875 23.03125 -27.8125 C 23.03125 -27.851562 23.03125 -27.910156 23.03125 -27.984375 C 23.03125 -29.328125 22.585938 -30.40625 21.703125 -31.21875 C 21.160156 -31.757812 20.472656 -32.132812 19.640625 -32.34375 C 18.816406 -32.550781 17.578125 -32.734375 15.921875 -32.890625 L 13.21875 -33 Z M 13.328125 -22.84375 "/></g></g></g><g fill="#000000" fill-opacity="1"><g transform="translate(139.484719, 202.183787)"><g><path d="M 13.21875 -29.25 C 14.601562 -29.5625 15.929688 -29.71875 17.203125 -29.71875 C 18.273438 -29.71875 19.628906 -29.539062 21.265625 -29.1875 C 22.898438 -28.84375 24.425781 -28.019531 25.84375 -26.71875 C 27.15625 -25.519531 28.078125 -24.207031 28.609375 -22.78125 C 29.148438 -21.363281 29.460938 -19.425781 29.546875 -16.96875 C 29.585938 -16.15625 29.609375 -15.460938 29.609375 -14.890625 C 29.609375 -14.046875 29.566406 -13.488281 29.484375 -13.21875 C 29.410156 -12.832031 29.320312 -12.597656 29.21875 -12.515625 C 29.125 -12.441406 28.867188 -12.40625 28.453125 -12.40625 C 27.835938 -12.40625 26.066406 -12.257812 23.140625 -11.96875 C 20.210938 -11.6875 17.613281 -11.546875 15.34375 -11.546875 L 11.9375 -11.546875 L 12.125 -10.96875 C 12.382812 -9.882812 13.101562 -8.96875 14.28125 -8.21875 C 15.457031 -7.46875 16.773438 -7.09375 18.234375 -7.09375 C 20.003906 -7.09375 21.617188 -7.691406 23.078125 -8.890625 C 23.734375 -9.421875 24.140625 -9.6875 24.296875 -9.6875 C 24.410156 -9.6875 25.226562 -8.890625 26.75 -7.296875 C 28.269531 -5.703125 29.046875 -4.804688 29.078125 -4.609375 C 29.078125 -4.609375 29.078125 -4.59375 29.078125 -4.5625 C 29.078125 -4.363281 28.5 -3.84375 27.34375 -3 C 26.195312 -2.15625 25.179688 -1.519531 24.296875 -1.09375 C 23.140625 -0.550781 22.03125 -0.148438 20.96875 0.109375 C 19.914062 0.378906 18.640625 0.515625 17.140625 0.515625 C 13.484375 0.515625 10.421875 -0.414062 7.953125 -2.28125 C 5.492188 -4.144531 3.765625 -6.789062 2.765625 -10.21875 C 2.460938 -11.332031 2.3125 -12.832031 2.3125 -14.71875 C 2.3125 -16.445312 2.425781 -17.847656 2.65625 -18.921875 C 2.882812 -20.003906 3.347656 -21.21875 4.046875 -22.5625 C 4.960938 -24.375 6.171875 -25.828125 7.671875 -26.921875 C 9.171875 -28.015625 11.019531 -28.789062 13.21875 -29.25 Z M 19.453125 -22.625 C 18.796875 -22.925781 18.140625 -23.078125 17.484375 -23.078125 C 16.984375 -23.078125 16.257812 -22.921875 15.3125 -22.609375 C 14.375 -22.304688 13.519531 -21.597656 12.75 -20.484375 C 12.132812 -19.640625 11.828125 -19.0625 11.828125 -18.75 C 11.828125 -18.71875 11.84375 -18.632812 11.875 -18.5 C 11.914062 -18.363281 12.515625 -18.296875 13.671875 -18.296875 C 14.753906 -18.296875 16.425781 -18.378906 18.6875 -18.546875 C 20.957031 -18.722656 22.113281 -18.832031 22.15625 -18.875 C 22.195312 -18.90625 22.21875 -18.976562 22.21875 -19.09375 C 22.21875 -19.289062 22.070312 -19.6875 21.78125 -20.28125 C 21.488281 -20.875 21.210938 -21.328125 20.953125 -21.640625 C 20.597656 -21.984375 20.097656 -22.3125 19.453125 -22.625 Z M 19.453125 -22.625 "/></g></g></g><g fill="#000000" fill-opacity="1"><g transform="translate(166.255302, 202.183787)"><g><path d="M 23.953125 -42.359375 C 24.140625 -42.585938 24.414062 -42.71875 24.78125 -42.75 C 25.144531 -42.789062 26.097656 -42.8125 27.640625 -42.8125 C 29.097656 -42.8125 29.988281 -42.789062 30.3125 -42.75 C 30.644531 -42.71875 30.832031 -42.625 30.875 -42.46875 C 30.875 -42.3125 30.890625 -42.234375 30.921875 -42.234375 C 30.921875 -42.234375 30.941406 -42.273438 30.984375 -42.359375 C 30.984375 -42.390625 31.003906 -42.445312 31.046875 -42.53125 C 31.085938 -42.601562 31.125 -42.640625 31.15625 -42.640625 C 31.195312 -42.640625 31.253906 -42.546875 31.328125 -42.359375 C 31.367188 -42.203125 31.410156 -42.007812 31.453125 -41.78125 C 31.597656 -40.894531 31.691406 -33.125 31.734375 -18.46875 C 31.773438 -13.96875 31.796875 -10.410156 31.796875 -7.796875 C 31.796875 -5.140625 31.773438 -3.234375 31.734375 -2.078125 C 31.691406 -0.921875 31.578125 -0.304688 31.390625 -0.234375 C 31.046875 -0.148438 30.140625 -0.109375 28.671875 -0.109375 C 28.285156 -0.109375 27.4375 -0.117188 26.125 -0.140625 C 24.820312 -0.160156 24.054688 -0.226562 23.828125 -0.34375 C 23.671875 -0.425781 23.5625 -0.582031 23.5 -0.8125 C 23.445312 -1.039062 23.421875 -1.519531 23.421875 -2.25 L 23.421875 -3.984375 L 22.390625 -2.9375 C 20.046875 -0.59375 17.503906 0.578125 14.765625 0.578125 C 13.960938 0.578125 13.117188 0.460938 12.234375 0.234375 C 11.035156 -0.0351562 9.992188 -0.410156 9.109375 -0.890625 C 8.234375 -1.367188 7.3125 -2.070312 6.34375 -3 C 4.925781 -4.457031 3.898438 -6.09375 3.265625 -7.90625 C 2.628906 -9.71875 2.3125 -11.851562 2.3125 -14.3125 C 2.3125 -16.5 2.503906 -18.238281 2.890625 -19.53125 C 3.273438 -20.820312 3.984375 -22.273438 5.015625 -23.890625 C 5.671875 -24.890625 6.34375 -25.707031 7.03125 -26.34375 C 7.726562 -26.976562 8.578125 -27.546875 9.578125 -28.046875 C 11.234375 -28.890625 12.695312 -29.359375 13.96875 -29.453125 C 15.238281 -29.554688 16.082031 -29.609375 16.5 -29.609375 C 18.039062 -29.609375 19.390625 -29.351562 20.546875 -28.84375 C 21.117188 -28.613281 21.769531 -28.234375 22.5 -27.703125 L 23.421875 -26.953125 L 23.484375 -30.46875 C 23.523438 -34.007812 23.546875 -36.601562 23.546875 -38.25 C 23.546875 -39.0625 23.546875 -39.640625 23.546875 -39.984375 C 23.546875 -40.796875 23.570312 -41.34375 23.625 -41.625 C 23.6875 -41.914062 23.796875 -42.160156 23.953125 -42.359375 Z M 19.390625 -21.40625 C 18.617188 -21.789062 17.9375 -21.984375 17.34375 -21.984375 C 16.75 -21.984375 16.046875 -21.769531 15.234375 -21.34375 C 14.734375 -21.113281 14.191406 -20.691406 13.609375 -20.078125 C 13.035156 -19.460938 12.578125 -18.847656 12.234375 -18.234375 C 12.003906 -17.847656 11.867188 -17.472656 11.828125 -17.109375 C 11.785156 -16.742188 11.765625 -16.0625 11.765625 -15.0625 C 11.765625 -13.832031 11.867188 -12.789062 12.078125 -11.9375 C 12.296875 -11.09375 12.675781 -10.25 13.21875 -9.40625 C 13.71875 -8.5625 14.273438 -7.957031 14.890625 -7.59375 C 15.503906 -7.226562 16.289062 -7.046875 17.25 -7.046875 C 18.445312 -7.046875 19.476562 -7.359375 20.34375 -7.984375 C 21.207031 -8.617188 21.945312 -9.613281 22.5625 -10.96875 C 22.945312 -11.882812 23.15625 -12.660156 23.1875 -13.296875 C 23.226562 -13.929688 23.25 -14.347656 23.25 -14.546875 C 23.25 -15.390625 23.125 -16.242188 22.875 -17.109375 C 22.625 -17.972656 22.191406 -18.796875 21.578125 -19.578125 C 20.960938 -20.367188 20.234375 -20.976562 19.390625 -21.40625 Z M 19.390625 -21.40625 "/></g></g></g><g fill="#000000" fill-opacity="1"><g transform="translate(49.025543, 202.185121)"><g><path d="M 13.046875 0 L 4.046875 0 L 4.046875 -40.5 L 13.046875 -40.5 Z M 15 -25.796875 C 23.195312 -25.796875 27.523438 -25.851562 27.984375 -25.96875 L 28.671875 -26.078125 L 28.671875 -32.953125 C 28.671875 -37.140625 28.710938 -39.425781 28.796875 -39.8125 C 28.828125 -40.039062 29.023438 -40.175781 29.390625 -40.21875 C 29.765625 -40.257812 30.910156 -40.296875 32.828125 -40.328125 C 35.410156 -40.367188 36.796875 -40.410156 36.984375 -40.453125 C 37.023438 -40.453125 37.066406 -40.453125 37.109375 -40.453125 C 37.222656 -40.453125 37.351562 -40.410156 37.5 -40.328125 C 37.65625 -40.296875 37.753906 -39.90625 37.796875 -39.15625 C 37.835938 -38.40625 37.859375 -36.28125 37.859375 -32.78125 C 37.816406 -28.15625 37.773438 -22.285156 37.734375 -15.171875 L 37.625 0 L 28.5625 -0.109375 L 28.625 -11.71875 L 28.734375 -17.890625 L 15 -17.890625 Z M 15 -25.796875 "/></g></g></g><g fill="#000000" fill-opacity="1"><g transform="translate(167.265651, 227.516589)"><g><path d="M 6.140625 -4.125 L 6.140625 0 L 4.015625 0 L 4.015625 -4.125 L 0.25 -10.65625 L 2.65625 -10.65625 L 5.140625 -6.015625 L 7.5625 -10.65625 L 9.90625 -10.65625 Z M 6.140625 -4.125 "/></g></g></g><g fill="#000000" fill-opacity="1"><g transform="translate(176.369596, 227.516589)"><g><path d="M 1.546875 -7.234375 C 2.296875 -8.035156 3.335938 -8.4375 4.671875 -8.4375 C 6.015625 -8.4375 7.0625 -8.035156 7.8125 -7.234375 C 8.570312 -6.441406 8.953125 -5.398438 8.953125 -4.109375 C 8.953125 -2.828125 8.570312 -1.785156 7.8125 -0.984375 C 7.0625 -0.179688 6.015625 0.21875 4.671875 0.21875 C 3.335938 0.21875 2.296875 -0.179688 1.546875 -0.984375 C 0.796875 -1.785156 0.421875 -2.828125 0.421875 -4.109375 C 0.421875 -5.398438 0.796875 -6.441406 1.546875 -7.234375 Z M 3.171875 -2.03125 C 3.535156 -1.53125 4.035156 -1.28125 4.671875 -1.28125 C 5.316406 -1.28125 5.820312 -1.53125 6.1875 -2.03125 C 6.550781 -2.53125 6.734375 -3.222656 6.734375 -4.109375 C 6.734375 -4.992188 6.550781 -5.6875 6.1875 -6.1875 C 5.820312 -6.6875 5.316406 -6.9375 4.671875 -6.9375 C 4.035156 -6.9375 3.535156 -6.6875 3.171875 -6.1875 C 2.804688 -5.6875 2.625 -4.992188 2.625 -4.109375 C 2.625 -3.222656 2.804688 -2.53125 3.171875 -2.03125 Z M 3.171875 -2.03125 "/></g></g></g><g fill="#000000" fill-opacity="1"><g transform="translate(185.164413, 227.516589)"><g><path d="M 8.5625 -8.21875 L 8.5625 0 L 6.421875 0 L 6.421875 -1.390625 L 5.796875 -0.34375 C 5.234375 0.03125 4.570312 0.21875 3.8125 0.21875 C 3 0.21875 2.335938 0.0195312 1.828125 -0.375 C 1.316406 -0.769531 1.007812 -1.269531 0.90625 -1.875 C 0.851562 -2.21875 0.828125 -2.71875 0.828125 -3.375 L 0.828125 -8.21875 L 2.96875 -8.21875 L 2.96875 -3.8125 C 2.96875 -3.4375 2.988281 -3.0625 3.03125 -2.6875 C 3.144531 -1.757812 3.675781 -1.296875 4.625 -1.296875 C 5.175781 -1.296875 5.613281 -1.523438 5.9375 -1.984375 C 6.257812 -2.453125 6.421875 -3.132812 6.421875 -4.03125 L 6.421875 -8.21875 Z M 8.5625 -8.21875 "/></g></g></g><g fill="#000000" fill-opacity="1"><g transform="translate(194.144701, 227.516589)"><g><path d="M 5.15625 -8.421875 C 5.394531 -8.421875 5.597656 -8.398438 5.765625 -8.359375 L 5.765625 -6.640625 C 4.859375 -6.703125 4.1875 -6.507812 3.75 -6.0625 C 3.320312 -5.613281 3.109375 -4.847656 3.109375 -3.765625 L 3.109375 0 L 0.96875 0 L 0.96875 -8.21875 L 3.109375 -8.21875 L 3.109375 -6.71875 L 3.75 -7.859375 C 4.15625 -8.234375 4.625 -8.421875 5.15625 -8.421875 Z M 5.15625 -8.421875 "/></g></g></g><g fill="#000000" fill-opacity="1"><g transform="translate(199.446319, 227.516589)"><g/></g></g><g fill="#000000" fill-opacity="1"><g transform="translate(201.873, 227.516589)"><g><path d="M 9.71875 -9 L 6.109375 -9 L 6.109375 0 L 3.96875 0 L 3.96875 -9 L 0.359375 -9 L 0.359375 -10.65625 L 9.71875 -10.65625 Z M 9.71875 -9 "/></g></g></g><g fill="#000000" fill-opacity="1"><g transform="translate(210.930576, 227.516589)"><g><path d="M 5.15625 -8.421875 C 5.394531 -8.421875 5.597656 -8.398438 5.765625 -8.359375 L 5.765625 -6.640625 C 4.859375 -6.703125 4.1875 -6.507812 3.75 -6.0625 C 3.320312 -5.613281 3.109375 -4.847656 3.109375 -3.765625 L 3.109375 0 L 0.96875 0 L 0.96875 -8.21875 L 3.109375 -8.21875 L 3.109375 -6.71875 L 3.75 -7.859375 C 4.15625 -8.234375 4.625 -8.421875 5.15625 -8.421875 Z M 5.15625 -8.421875 "/></g></g></g><g fill="#000000" fill-opacity="1"><g transform="translate(216.232193, 227.516589)"><g><path d="M 8.5625 -8.21875 L 8.5625 0 L 6.421875 0 L 6.421875 -1.390625 L 5.796875 -0.34375 C 5.234375 0.03125 4.570312 0.21875 3.8125 0.21875 C 3 0.21875 2.335938 0.0195312 1.828125 -0.375 C 1.316406 -0.769531 1.007812 -1.269531 0.90625 -1.875 C 0.851562 -2.21875 0.828125 -2.71875 0.828125 -3.375 L 0.828125 -8.21875 L 2.96875 -8.21875 L 2.96875 -3.8125 C 2.96875 -3.4375 2.988281 -3.0625 3.03125 -2.6875 C 3.144531 -1.757812 3.675781 -1.296875 4.625 -1.296875 C 5.175781 -1.296875 5.613281 -1.523438 5.9375 -1.984375 C 6.257812 -2.453125 6.421875 -3.132812 6.421875 -4.03125 L 6.421875 -8.21875 Z M 8.5625 -8.21875 "/></g></g></g><g fill="#000000" fill-opacity="1"><g transform="translate(225.212484, 227.516589)"><g><path d="M 3.90625 -8.4375 C 4.851562 -8.4375 5.609375 -8.195312 6.171875 -7.71875 C 6.742188 -7.25 7.078125 -6.625 7.171875 -5.84375 L 5.03125 -5.84375 C 4.894531 -6.632812 4.472656 -7.03125 3.765625 -7.03125 C 3.460938 -7.03125 3.222656 -6.945312 3.046875 -6.78125 C 2.878906 -6.625 2.796875 -6.414062 2.796875 -6.15625 C 2.796875 -5.84375 2.929688 -5.59375 3.203125 -5.40625 C 3.484375 -5.21875 3.972656 -5.039062 4.671875 -4.875 C 5.566406 -4.644531 6.234375 -4.328125 6.671875 -3.921875 C 7.117188 -3.523438 7.34375 -2.960938 7.34375 -2.234375 C 7.34375 -1.441406 7.023438 -0.832031 6.390625 -0.40625 C 5.753906 0.0078125 4.941406 0.21875 3.953125 0.21875 C 2.921875 0.21875 2.085938 -0.00390625 1.453125 -0.453125 C 0.816406 -0.910156 0.441406 -1.59375 0.328125 -2.5 L 2.453125 -2.5 C 2.535156 -2.070312 2.710938 -1.742188 2.984375 -1.515625 C 3.265625 -1.296875 3.597656 -1.1875 3.984375 -1.1875 C 4.347656 -1.1875 4.640625 -1.265625 4.859375 -1.421875 C 5.078125 -1.578125 5.1875 -1.800781 5.1875 -2.09375 C 5.1875 -2.40625 5.035156 -2.660156 4.734375 -2.859375 C 4.441406 -3.066406 3.941406 -3.257812 3.234375 -3.4375 C 2.398438 -3.632812 1.757812 -3.925781 1.3125 -4.3125 C 0.875 -4.707031 0.65625 -5.238281 0.65625 -5.90625 C 0.65625 -6.6875 0.945312 -7.300781 1.53125 -7.75 C 2.125 -8.207031 2.914062 -8.4375 3.90625 -8.4375 Z M 3.90625 -8.4375 "/></g></g></g><g fill="#000000" fill-opacity="1"><g transform="translate(232.322524, 227.516589)"><g><path d="M 3.515625 -6.75 L 3.515625 -2.953125 C 3.515625 -2.609375 3.519531 -2.363281 3.53125 -2.21875 C 3.5625 -1.820312 3.679688 -1.5625 3.890625 -1.4375 C 4.097656 -1.320312 4.492188 -1.285156 5.078125 -1.328125 L 5.078125 0.0625 C 4.640625 0.132812 4.171875 0.171875 3.671875 0.171875 C 2.890625 0.171875 2.332031 0.0390625 2 -0.21875 C 1.664062 -0.488281 1.472656 -0.921875 1.421875 -1.515625 C 1.398438 -1.765625 1.390625 -2.160156 1.390625 -2.703125 L 1.390625 -6.75 L 0.1875 -6.75 L 0.1875 -8.15625 L 1.390625 -8.15625 L 1.390625 -10.1875 L 3.515625 -10.1875 L 3.515625 -8.15625 L 5.21875 -8.15625 L 5.21875 -6.75 Z M 3.515625 -6.75 "/></g></g></g><g fill="#000000" fill-opacity="1"><g transform="translate(237.330462, 227.516589)"><g><path d="M 8.4375 -4.28125 C 8.4375 -3.976562 8.425781 -3.734375 8.40625 -3.546875 L 2.5625 -3.546875 C 2.6875 -2.035156 3.320312 -1.28125 4.46875 -1.28125 C 4.925781 -1.28125 5.304688 -1.40625 5.609375 -1.65625 C 5.921875 -1.90625 6.113281 -2.242188 6.1875 -2.671875 L 8.3125 -2.671875 C 8.101562 -1.734375 7.648438 -1.015625 6.953125 -0.515625 C 6.265625 -0.0234375 5.421875 0.21875 4.421875 0.21875 C 3.234375 0.21875 2.269531 -0.148438 1.53125 -0.890625 C 0.789062 -1.628906 0.421875 -2.691406 0.421875 -4.078125 C 0.421875 -5.359375 0.800781 -6.40625 1.5625 -7.21875 C 2.332031 -8.03125 3.34375 -8.4375 4.59375 -8.4375 C 5.789062 -8.4375 6.726562 -8.039062 7.40625 -7.25 C 8.09375 -6.457031 8.4375 -5.46875 8.4375 -4.28125 Z M 4.5 -6.9375 C 3.4375 -6.9375 2.8125 -6.269531 2.625 -4.9375 L 6.25 -4.9375 C 6.101562 -6.269531 5.519531 -6.9375 4.5 -6.9375 Z M 4.5 -6.9375 "/></g></g></g><g fill="#000000" fill-opacity="1"><g transform="translate(245.692486, 227.516589)"><g><path d="M 8.96875 -11.359375 L 8.96875 0 L 6.828125 0 L 6.828125 -1.265625 L 6.21875 -0.359375 C 5.71875 0.0234375 5.003906 0.21875 4.078125 0.21875 C 2.941406 0.21875 2.046875 -0.164062 1.390625 -0.9375 C 0.742188 -1.71875 0.421875 -2.722656 0.421875 -3.953125 C 0.421875 -5.378906 0.796875 -6.484375 1.546875 -7.265625 C 2.296875 -8.046875 3.234375 -8.4375 4.359375 -8.4375 C 5.203125 -8.4375 5.847656 -8.28125 6.296875 -7.96875 L 6.828125 -7.125 L 6.828125 -11.359375 Z M 4.703125 -1.28125 C 5.335938 -1.28125 5.847656 -1.5 6.234375 -1.9375 C 6.628906 -2.375 6.828125 -3.066406 6.828125 -4.015625 L 6.828125 -4.421875 C 6.828125 -5.273438 6.625 -5.90625 6.21875 -6.3125 C 5.820312 -6.726562 5.34375 -6.9375 4.78125 -6.9375 C 4.132812 -6.9375 3.613281 -6.691406 3.21875 -6.203125 C 2.820312 -5.710938 2.625 -5.007812 2.625 -4.09375 C 2.625 -3.25 2.8125 -2.566406 3.1875 -2.046875 C 3.5625 -1.535156 4.066406 -1.28125 4.703125 -1.28125 Z M 4.703125 -1.28125 "/></g></g></g><g fill="#000000" fill-opacity="1"><g transform="translate(255.090112, 227.516589)"><g/></g></g><g fill="#000000" fill-opacity="1"><g transform="translate(257.516796, 227.516589)"><g><path d="M 8.375 -10.65625 L 8.375 -4.375 C 8.375 -3.84375 8.359375 -3.351562 8.328125 -2.90625 C 8.265625 -1.9375 7.914062 -1.171875 7.28125 -0.609375 C 6.65625 -0.0546875 5.738281 0.21875 4.53125 0.21875 C 3.320312 0.21875 2.40625 -0.09375 1.78125 -0.71875 C 1.15625 -1.34375 0.828125 -2.21875 0.796875 -3.34375 L 0.78125 -3.875 L 2.921875 -3.875 L 2.953125 -3.34375 C 3.023438 -2.03125 3.59375 -1.375 4.65625 -1.375 C 5.601562 -1.375 6.128906 -1.925781 6.234375 -3.03125 C 6.242188 -3.257812 6.25 -3.632812 6.25 -4.15625 L 6.25 -10.65625 Z M 8.375 -10.65625 "/></g></g></g><g fill="#000000" fill-opacity="1"><g transform="translate(266.157039, 227.516589)"><g><path d="M 1.546875 -7.234375 C 2.296875 -8.035156 3.335938 -8.4375 4.671875 -8.4375 C 6.015625 -8.4375 7.0625 -8.035156 7.8125 -7.234375 C 8.570312 -6.441406 8.953125 -5.398438 8.953125 -4.109375 C 8.953125 -2.828125 8.570312 -1.785156 7.8125 -0.984375 C 7.0625 -0.179688 6.015625 0.21875 4.671875 0.21875 C 3.335938 0.21875 2.296875 -0.179688 1.546875 -0.984375 C 0.796875 -1.785156 0.421875 -2.828125 0.421875 -4.109375 C 0.421875 -5.398438 0.796875 -6.441406 1.546875 -7.234375 Z M 3.171875 -2.03125 C 3.535156 -1.53125 4.035156 -1.28125 4.671875 -1.28125 C 5.316406 -1.28125 5.820312 -1.53125 6.1875 -2.03125 C 6.550781 -2.53125 6.734375 -3.222656 6.734375 -4.109375 C 6.734375 -4.992188 6.550781 -5.6875 6.1875 -6.1875 C 5.820312 -6.6875 5.316406 -6.9375 4.671875 -6.9375 C 4.035156 -6.9375 3.535156 -6.6875 3.171875 -6.1875 C 2.804688 -5.6875 2.625 -4.992188 2.625 -4.109375 C 2.625 -3.222656 2.804688 -2.53125 3.171875 -2.03125 Z M 3.171875 -2.03125 "/></g></g></g><g fill="#000000" fill-opacity="1"><g transform="translate(274.951852, 227.516589)"><g><path d="M 5.859375 -8.4375 C 6.992188 -8.4375 7.882812 -8.050781 8.53125 -7.28125 C 9.1875 -6.507812 9.515625 -5.503906 9.515625 -4.265625 C 9.515625 -2.835938 9.140625 -1.734375 8.390625 -0.953125 C 7.640625 -0.171875 6.703125 0.21875 5.578125 0.21875 C 4.734375 0.21875 4.085938 0.0625 3.640625 -0.25 L 3.109375 -1.09375 L 3.109375 0 L 0.96875 0 L 0.96875 -11.359375 L 3.109375 -11.359375 L 3.109375 -6.96875 L 3.71875 -7.859375 C 4.195312 -8.242188 4.910156 -8.4375 5.859375 -8.4375 Z M 5.15625 -1.28125 C 5.800781 -1.28125 6.320312 -1.523438 6.71875 -2.015625 C 7.113281 -2.503906 7.3125 -3.207031 7.3125 -4.125 C 7.3125 -4.96875 7.125 -5.644531 6.75 -6.15625 C 6.375 -6.675781 5.867188 -6.9375 5.234375 -6.9375 C 4.597656 -6.9375 4.082031 -6.71875 3.6875 -6.28125 C 3.300781 -5.84375 3.109375 -5.148438 3.109375 -4.203125 L 3.109375 -3.8125 C 3.109375 -2.945312 3.304688 -2.304688 3.703125 -1.890625 C 4.109375 -1.484375 4.59375 -1.28125 5.15625 -1.28125 Z M 5.15625 -1.28125 "/></g></g></g><g fill="#000000" fill-opacity="1"><g transform="translate(284.318553, 227.516589)"><g/></g></g><g fill="#000000" fill-opacity="1"><g transform="translate(286.745231, 227.516589)"><g><path d="M 6.609375 -10.578125 C 7.460938 -10.492188 8.15625 -10.171875 8.6875 -9.609375 C 9.21875 -9.046875 9.484375 -8.289062 9.484375 -7.34375 C 9.484375 -6.40625 9.207031 -5.65625 8.65625 -5.09375 C 8.113281 -4.53125 7.429688 -4.195312 6.609375 -4.09375 C 6.171875 -4.039062 5.65625 -4.015625 5.0625 -4.015625 L 3.515625 -4.015625 L 3.515625 0 L 1.375 0 L 1.375 -10.65625 L 5.0625 -10.65625 C 5.664062 -10.65625 6.179688 -10.628906 6.609375 -10.578125 Z M 5.984375 -5.75 C 6.828125 -5.875 7.25 -6.40625 7.25 -7.34375 C 7.25 -8.28125 6.828125 -8.8125 5.984375 -8.9375 C 5.742188 -8.96875 5.425781 -8.984375 5.03125 -8.984375 L 3.515625 -8.984375 L 3.515625 -5.703125 L 5.03125 -5.703125 C 5.425781 -5.703125 5.742188 -5.71875 5.984375 -5.75 Z M 5.984375 -5.75 "/></g></g></g><g fill="#000000" fill-opacity="1"><g transform="translate(295.802804, 227.516589)"><g><path d="M 5.75 0 L 5.59375 -1.203125 L 5.1875 -0.328125 C 4.65625 0.0351562 3.976562 0.21875 3.15625 0.21875 C 2.40625 0.21875 1.773438 0.0078125 1.265625 -0.40625 C 0.765625 -0.832031 0.515625 -1.421875 0.515625 -2.171875 C 0.515625 -3.078125 0.894531 -3.773438 1.65625 -4.265625 C 2.425781 -4.753906 3.550781 -5 5.03125 -5 L 5.5625 -5 L 5.5625 -5.171875 C 5.5625 -5.503906 5.550781 -5.765625 5.53125 -5.953125 C 5.457031 -6.609375 5.035156 -6.9375 4.265625 -6.9375 C 3.410156 -6.9375 2.953125 -6.472656 2.890625 -5.546875 L 0.8125 -5.53125 C 0.84375 -6.4375 1.1875 -7.144531 1.84375 -7.65625 C 2.5 -8.175781 3.332031 -8.4375 4.34375 -8.4375 C 6.394531 -8.4375 7.492188 -7.628906 7.640625 -6.015625 C 7.671875 -5.617188 7.6875 -5.195312 7.6875 -4.75 L 7.6875 -2.09375 C 7.6875 -1.457031 7.734375 -0.757812 7.828125 0 Z M 3.96875 -1.28125 C 4.425781 -1.28125 4.804688 -1.429688 5.109375 -1.734375 C 5.410156 -2.046875 5.5625 -2.476562 5.5625 -3.03125 L 5.5625 -3.6875 C 3.664062 -3.820312 2.71875 -3.375 2.71875 -2.34375 C 2.71875 -1.632812 3.132812 -1.28125 3.96875 -1.28125 Z M 3.96875 -1.28125 "/></g></g></g><g fill="#000000" fill-opacity="1"><g transform="translate(303.917521, 227.516589)"><g><path d="M 5.15625 -8.421875 C 5.394531 -8.421875 5.597656 -8.398438 5.765625 -8.359375 L 5.765625 -6.640625 C 4.859375 -6.703125 4.1875 -6.507812 3.75 -6.0625 C 3.320312 -5.613281 3.109375 -4.847656 3.109375 -3.765625 L 3.109375 0 L 0.96875 0 L 0.96875 -8.21875 L 3.109375 -8.21875 L 3.109375 -6.71875 L 3.75 -7.859375 C 4.15625 -8.234375 4.625 -8.421875 5.15625 -8.421875 Z M 5.15625 -8.421875 "/></g></g></g><g fill="#000000" fill-opacity="1"><g transform="translate(309.219133, 227.516589)"><g><path d="M 3.515625 -6.75 L 3.515625 -2.953125 C 3.515625 -2.609375 3.519531 -2.363281 3.53125 -2.21875 C 3.5625 -1.820312 3.679688 -1.5625 3.890625 -1.4375 C 4.097656 -1.320312 4.492188 -1.285156 5.078125 -1.328125 L 5.078125 0.0625 C 4.640625 0.132812 4.171875 0.171875 3.671875 0.171875 C 2.890625 0.171875 2.332031 0.0390625 2 -0.21875 C 1.664062 -0.488281 1.472656 -0.921875 1.421875 -1.515625 C 1.398438 -1.765625 1.390625 -2.160156 1.390625 -2.703125 L 1.390625 -6.75 L 0.1875 -6.75 L 0.1875 -8.15625 L 1.390625 -8.15625 L 1.390625 -10.1875 L 3.515625 -10.1875 L 3.515625 -8.15625 L 5.21875 -8.15625 L 5.21875 -6.75 Z M 3.515625 -6.75 "/></g></g></g><g fill="#000000" fill-opacity="1"><g transform="translate(314.227065, 227.516589)"><g><path d="M 8.640625 -6.140625 C 8.679688 -5.765625 8.703125 -5.265625 8.703125 -4.640625 L 8.703125 0 L 6.5625 0 L 6.5625 -4.34375 C 6.5625 -4.820312 6.550781 -5.203125 6.53125 -5.484375 C 6.457031 -6.453125 5.929688 -6.9375 4.953125 -6.9375 C 4.398438 -6.9375 3.953125 -6.675781 3.609375 -6.15625 C 3.273438 -5.632812 3.109375 -4.832031 3.109375 -3.75 L 3.109375 0 L 0.96875 0 L 0.96875 -8.21875 L 3.109375 -8.21875 L 3.109375 -6.890625 L 3.734375 -7.859375 C 4.273438 -8.242188 4.9375 -8.4375 5.71875 -8.4375 C 6.582031 -8.4375 7.265625 -8.234375 7.765625 -7.828125 C 8.265625 -7.429688 8.554688 -6.867188 8.640625 -6.140625 Z M 8.640625 -6.140625 "/></g></g></g><g fill="#000000" fill-opacity="1"><g transform="translate(323.253718, 227.516589)"><g><path d="M 8.4375 -4.28125 C 8.4375 -3.976562 8.425781 -3.734375 8.40625 -3.546875 L 2.5625 -3.546875 C 2.6875 -2.035156 3.320312 -1.28125 4.46875 -1.28125 C 4.925781 -1.28125 5.304688 -1.40625 5.609375 -1.65625 C 5.921875 -1.90625 6.113281 -2.242188 6.1875 -2.671875 L 8.3125 -2.671875 C 8.101562 -1.734375 7.648438 -1.015625 6.953125 -0.515625 C 6.265625 -0.0234375 5.421875 0.21875 4.421875 0.21875 C 3.234375 0.21875 2.269531 -0.148438 1.53125 -0.890625 C 0.789062 -1.628906 0.421875 -2.691406 0.421875 -4.078125 C 0.421875 -5.359375 0.800781 -6.40625 1.5625 -7.21875 C 2.332031 -8.03125 3.34375 -8.4375 4.59375 -8.4375 C 5.789062 -8.4375 6.726562 -8.039062 7.40625 -7.25 C 8.09375 -6.457031 8.4375 -5.46875 8.4375 -4.28125 Z M 4.5 -6.9375 C 3.4375 -6.9375 2.8125 -6.269531 2.625 -4.9375 L 6.25 -4.9375 C 6.101562 -6.269531 5.519531 -6.9375 4.5 -6.9375 Z M 4.5 -6.9375 "/></g></g></g><g fill="#000000" fill-opacity="1"><g transform="translate(331.615736, 227.516589)"><g><path d="M 5.15625 -8.421875 C 5.394531 -8.421875 5.597656 -8.398438 5.765625 -8.359375 L 5.765625 -6.640625 C 4.859375 -6.703125 4.1875 -6.507812 3.75 -6.0625 C 3.320312 -5.613281 3.109375 -4.847656 3.109375 -3.765625 L 3.109375 0 L 0.96875 0 L 0.96875 -8.21875 L 3.109375 -8.21875 L 3.109375 -6.71875 L 3.75 -7.859375 C 4.15625 -8.234375 4.625 -8.421875 5.15625 -8.421875 Z M 5.15625 -8.421875 "/></g></g></g></svg>